<svg width="64" height="67" viewBox="0 0 64 67" fill="none" xmlns="http://www.w3.org/2000/svg">
<path fill-rule="evenodd" clip-rule="evenodd" d="M32 29.8629C34.1371 29.8629 35.8805 31.6063 35.8805 33.7434C35.8805 35.8805 34.1371 37.6239 32 37.6239C29.8629 37.6239 28.1195 35.8805 28.1195 33.7434C28.1195 31.6063 29.8629 29.8629 32 29.8629ZM32 32C32.9561 32 33.7434 32.7873 33.7434 33.7434C33.7434 34.6995 32.9561 35.4868 32 35.4868C31.0439 35.4868 30.3128 34.6995 30.3128 33.7434C30.3128 32.7873 31.0439 32 32 32Z" fill="white"/>
<path d="M40.9984 25.645C40.9421 25.7012 40.9421 25.7575 40.9421 25.7575C40.9421 25.87 40.9984 25.9262 41.0546 25.9824C41.1671 26.0949 41.2795 26.1512 41.3358 26.1512C41.392 26.1512 41.4483 26.1512 41.5045 26.1512V26.0949C41.5607 26.0387 41.5607 25.9824 41.5607 25.87C41.5045 25.8137 41.4483 25.7012 41.3358 25.5888C41.3358 25.5325 41.2795 25.5325 41.2795 25.4763C41.1671 25.3076 41.1108 25.1389 41.1108 24.9701C41.1671 24.8014 41.2233 24.6889 41.3358 24.5765C41.392 24.5765 41.392 24.5202 41.4483 24.5202C41.5607 24.4077 41.7857 24.3515 41.9544 24.3515C42.1231 24.4077 42.2918 24.464 42.4606 24.6327C42.573 24.7452 42.6855 24.9139 42.6855 25.0826C42.7418 25.2513 42.7418 25.4201 42.6855 25.5888L42.2918 25.3638C42.2918 25.3076 42.2918 25.2513 42.2918 25.1951C42.2356 25.0826 42.1794 25.0264 42.1231 24.9701C42.0669 24.8577 41.9544 24.8577 41.8982 24.8577C41.8419 24.8014 41.7857 24.8577 41.6732 24.9139C41.617 24.9701 41.617 24.9701 41.617 25.0264C41.617 25.0826 41.617 25.1389 41.6732 25.2513C41.6732 25.2513 41.6732 25.2513 41.7295 25.2513C41.8419 25.4201 41.9544 25.5888 42.0107 25.7575C42.0669 25.9824 42.0669 26.2074 41.8419 26.4324C41.6732 26.6011 41.5045 26.6573 41.2795 26.6011C41.1108 26.6011 40.9421 26.4886 40.7734 26.3199C40.7734 26.3199 40.7172 26.3199 40.7172 26.2636C40.6047 26.1512 40.4922 25.9824 40.4922 25.8137C40.4922 25.7012 40.4922 25.5325 40.6047 25.3638L40.9984 25.645ZM21.5959 25.0826C21.6521 25.1389 21.7084 25.1951 21.7646 25.2513C21.9333 25.3638 22.102 25.5888 22.327 25.7012C22.6082 25.9824 22.9456 26.1512 23.1706 25.87C23.2831 25.7012 23.3393 25.5325 23.2268 25.3076C23.1143 25.0264 22.8332 24.6889 22.327 24.2953L22.6644 23.9578C23.1706 24.4077 23.508 24.8014 23.6767 25.1389C23.8455 25.5325 23.7892 25.87 23.508 26.2074C23.0581 26.7135 22.4957 26.4886 21.9896 26.0949C21.8208 25.9262 21.6521 25.7012 21.4834 25.5888C21.4272 25.4763 21.3709 25.4763 21.3147 25.4201L21.5959 25.0826ZM24.1829 25.0826L23.0581 23.4517L23.3393 23.2267L25.0827 23.5642L24.4641 22.5519L24.8578 22.3269L25.8138 23.7891L25.9263 24.0141L25.5889 24.239L23.8455 23.7891L24.5766 24.8577L24.1829 25.0826ZM25.7013 21.8208L26.5449 23.4517L26.1513 23.6766L25.3077 22.0457L25.7013 21.8208ZM26.4887 21.3146L27.5572 22.4394L27.6697 20.9772H28.1196L27.7822 23.1705L26.1513 21.5958L26.4887 21.3146ZM30.088 20.7522C30.0317 20.7522 29.9193 20.7522 29.863 20.8085C29.5256 20.8647 29.1319 20.9209 29.1319 21.0334C29.1319 21.1459 29.1319 21.2584 29.1319 21.3708L30.0317 21.1459L30.1442 21.5958L29.2444 21.8208C29.2444 21.877 29.3006 21.9332 29.3006 22.0457L29.3569 22.1582C29.3569 22.1582 29.4694 22.1582 29.5818 22.1019C29.8068 22.1019 30.088 21.9895 30.2567 21.9332L30.4254 22.3831C30.2005 22.4394 29.9193 22.5519 29.6381 22.5519C29.3006 22.6081 29.0194 22.5519 28.907 22.3269V22.1582C28.7382 21.7083 28.6258 21.4833 28.682 21.0334C28.682 20.5273 29.3006 20.4148 29.8068 20.3585C29.863 20.3023 29.9755 20.3023 30.0317 20.3023L30.088 20.7522ZM32.7312 22.3831C32.6187 22.1582 32.5063 21.9895 32.3938 21.8208C32.2813 21.7645 32.2251 21.652 32.1688 21.5958C32.0001 21.5958 31.8314 21.5958 31.6627 21.5958H31.6064V22.2144H31.1565V20.4148V20.2461L31.3252 20.1898C31.4377 20.1898 31.494 20.1898 31.6064 20.1898C31.8876 20.1336 32.2251 20.1336 32.45 20.1898C32.7312 20.3023 32.9562 20.471 33.0124 20.8085C33.0124 20.8085 33.0124 20.8085 33.0124 20.8647C33.0687 21.0896 32.9562 21.2584 32.7875 21.3708C32.7312 21.4271 32.675 21.4271 32.675 21.4833L32.7312 21.5396C32.8437 21.7083 33.0124 21.877 33.1249 22.1582L32.7312 22.3831ZM31.6064 20.6397V21.1459H31.6627C31.8314 21.1459 32.0001 21.1459 32.2251 21.1459C32.3375 21.1459 32.3938 21.0896 32.5063 21.0334C32.5625 20.9772 32.5625 20.9209 32.5625 20.9209C32.5625 20.8647 32.5625 20.8647 32.5625 20.8647C32.5625 20.7522 32.45 20.696 32.3375 20.6397C32.1688 20.5835 31.8876 20.5835 31.6627 20.6397H31.6064ZM34.0247 21.9332C34.0247 21.9895 34.1372 22.0457 34.1934 22.1019C34.2497 22.1582 34.3621 22.2144 34.4184 22.2144C34.5309 22.2144 34.6433 22.1582 34.6996 22.1582C34.7558 22.1019 34.8121 22.0457 34.8121 21.9895C34.8121 21.877 34.8121 21.8208 34.7558 21.8208C34.7558 21.7645 34.6433 21.7645 34.5871 21.7083H34.5309C34.3059 21.7083 34.1372 21.5958 33.9685 21.4833C33.856 21.3146 33.7435 21.1459 33.7998 20.9772C33.7998 20.7522 33.9122 20.5835 34.081 20.5273C34.2497 20.4148 34.4184 20.3585 34.6433 20.3585C34.8121 20.4148 34.9808 20.471 35.0933 20.5835C35.2057 20.696 35.262 20.8085 35.3182 20.8647L34.9245 21.0896C34.8683 21.0334 34.8121 20.9772 34.7558 20.9209C34.6996 20.8647 34.6433 20.8647 34.5871 20.8085C34.4746 20.8085 34.4184 20.8647 34.3621 20.8647C34.3059 20.9209 34.2497 20.9772 34.2497 20.9772C34.2497 21.0334 34.2497 21.0896 34.3059 21.1459C34.3621 21.2021 34.4746 21.2584 34.5871 21.2584C34.5871 21.2584 34.6433 21.2584 34.6996 21.2584C34.8683 21.3146 34.9808 21.3708 35.0933 21.4833C35.2057 21.652 35.262 21.7645 35.262 21.9895C35.262 22.0457 35.262 22.0457 35.262 22.1019C35.2057 22.3269 35.0933 22.4394 34.9245 22.5519C34.7558 22.6081 34.5871 22.6643 34.3621 22.6643C34.1934 22.6643 34.081 22.6081 33.9122 22.4956C33.7998 22.3831 33.6873 22.2707 33.631 22.1582L34.0247 21.9332ZM36.5555 21.0334L35.9368 22.8331L35.4869 22.6643L36.1056 20.8647L36.5555 21.0334ZM36.9491 23.1705L37.624 21.877L37.1179 21.5958L37.3428 21.2021L38.7488 21.9332L38.5801 22.3269L38.0739 22.1019L37.3428 23.3954L36.9491 23.1705ZM39.2549 23.3392C39.4237 23.4517 39.5924 23.5079 39.7611 23.6204C39.8736 23.7329 39.986 23.8454 40.0985 24.0141C40.3235 23.6766 40.436 23.3954 40.1548 23.2267C39.8173 23.0018 39.5361 23.1143 39.2549 23.3392ZM39.4799 24.0141C39.3112 23.9016 39.1425 23.7891 38.9737 23.6766C38.9175 23.7329 38.9175 23.7891 38.8613 23.8454C38.805 23.9578 38.7488 24.0703 38.6363 24.1266L38.2989 23.8454C38.3551 23.7329 38.4114 23.6766 38.5238 23.5642C38.9737 22.9455 39.4799 22.2144 40.3797 22.8331C40.9984 23.2267 40.8296 23.7329 40.4922 24.239C40.3797 24.464 40.211 24.6327 40.0423 24.8014C39.986 24.8577 39.9298 24.9701 39.8736 25.0264L39.5361 24.6889C39.5924 24.6327 39.6486 24.5765 39.7049 24.5202C39.7611 24.464 39.8173 24.4077 39.8173 24.3515C39.7049 24.239 39.5924 24.1266 39.4799 24.0141Z" fill="white"/>
<path d="M22.5518 40.4921L23.2267 41.2794L23.3954 41.5044L23.1704 41.6168C23.1142 41.7293 23.0017 41.7856 22.9455 41.8418C22.608 42.123 22.3268 42.4042 21.9894 42.5167C21.8207 42.5729 21.5957 42.5729 21.427 42.4604C21.2583 42.4042 21.0896 42.2917 20.9771 42.123C20.8646 41.9543 20.7521 41.7856 20.7521 41.5606C20.6959 41.3357 20.6959 41.1107 20.7521 40.942L21.2021 41.1107C21.2021 41.2232 21.1458 41.3357 21.2021 41.5044C21.2021 41.6168 21.2583 41.7293 21.3145 41.8418C21.3708 41.898 21.4832 42.0105 21.5957 42.0668C21.7082 42.0668 21.7644 42.0668 21.8207 42.0668C22.1019 41.9543 22.3831 41.7293 22.608 41.5044C22.6643 41.5044 22.6643 41.4481 22.7205 41.4481L22.1581 40.8295L22.5518 40.4921Z" fill="white"/>
<path d="M23.058 42.6292C23.058 42.6292 23.1142 42.5729 23.1705 42.5167C23.3392 42.4042 23.5641 42.2917 23.8453 42.2355C24.1265 42.2355 24.4077 42.2917 24.6327 42.5729C24.6889 42.6292 24.6889 42.6292 24.7452 42.6854C24.9701 42.9666 24.9701 43.2478 24.9139 43.4728C24.8576 43.8102 24.6327 44.0914 24.464 44.2601C24.4077 44.2601 24.4077 44.2601 24.4077 44.2601C24.239 44.4288 23.9578 44.4851 23.6766 44.4851C23.3954 44.4288 23.1142 44.3726 22.9455 44.1476V44.0914C22.7768 43.8664 22.6643 43.6415 22.6643 43.3603C22.6643 43.0791 22.7768 42.8541 23.058 42.6292ZM23.4517 42.9104C23.3954 42.9104 23.3954 42.9666 23.3392 42.9666C23.2267 43.1353 23.1142 43.2478 23.1142 43.3603C23.1142 43.529 23.1705 43.6977 23.2829 43.8102C23.2829 43.8102 23.2829 43.8102 23.2829 43.8664C23.3954 43.9227 23.5641 43.9789 23.6766 43.9789C23.8453 44.0352 24.014 43.9789 24.1265 43.9227V43.8664C24.2952 43.754 24.464 43.5852 24.464 43.3603C24.5202 43.2478 24.464 43.1353 24.3515 42.9666C24.3515 42.9104 24.3515 42.9104 24.2952 42.9104C24.1828 42.7417 24.014 42.6854 23.9016 42.6854C23.7328 42.7417 23.5641 42.7979 23.4517 42.9104Z" fill="white"/>
<path d="M26.4323 44.3725C26.376 44.3163 26.3198 44.2038 26.2073 44.1476C26.1511 44.0351 26.0948 43.9789 26.0386 43.9789C25.9261 43.9789 25.7574 43.9789 25.5887 44.0913C25.4762 44.1476 25.3075 44.2601 25.2512 44.4288C25.195 44.5975 25.1388 44.8225 25.195 44.9912C25.2512 45.1599 25.3075 45.3286 25.4762 45.3848C25.5887 45.4411 25.7011 45.4973 25.8136 45.4973C25.9261 45.5536 25.9823 45.5536 26.0948 45.4973C26.1511 45.4411 26.2073 45.2724 26.2635 45.1599C26.1511 45.1037 25.9823 45.0474 25.8699 44.9912C25.7574 44.9349 25.7011 44.9349 25.6449 44.8787L25.8136 44.4288C25.8699 44.485 25.9261 44.485 26.0386 44.5413C26.2635 44.6537 26.5447 44.7662 26.7135 44.8787L26.8259 44.9912L26.7697 45.1599C26.7697 45.1599 26.7697 45.1599 26.7697 45.2161C26.6572 45.4973 26.5447 45.7223 26.2635 45.891C26.0948 46.0035 25.9261 46.0035 25.7574 46.0035C25.5887 45.9472 25.42 45.891 25.2512 45.7785C24.97 45.666 24.8013 45.3848 24.7451 45.1037C24.6888 44.8225 24.7451 44.485 24.8576 44.2038C24.97 43.9789 25.1388 43.7539 25.42 43.6414C25.6449 43.529 25.9261 43.4727 26.1511 43.529C26.3198 43.5852 26.4323 43.6977 26.5447 43.8102C26.7135 43.9226 26.8259 44.0913 26.8259 44.2601L26.4323 44.3725Z" fill="white"/>
<path d="M28.2321 44.5975C28.4008 44.6538 28.5133 44.71 28.6257 44.71C28.7945 44.7663 28.9632 44.8225 29.1319 44.8787L29.3568 44.935L29.3006 45.1599C29.3006 45.4411 29.2444 45.6661 29.1319 45.891C29.0756 46.0597 29.0194 46.2847 28.9069 46.5097C28.7945 46.6784 28.6257 46.7909 28.4008 46.8471C28.2321 46.9033 28.0071 46.9033 27.7821 46.8471C27.501 46.7346 27.276 46.6221 27.1635 46.4534C27.051 46.2847 26.9386 46.116 26.8823 45.891L27.3322 45.8348C27.3885 45.9473 27.4447 46.0597 27.501 46.116C27.6134 46.2285 27.7259 46.3409 27.9509 46.3972C28.0633 46.4534 28.1758 46.4534 28.2883 46.3972C28.4008 46.3972 28.457 46.3409 28.5133 46.2847C28.5695 46.116 28.682 45.9473 28.7382 45.7223C28.7382 45.6098 28.7945 45.4411 28.8507 45.2724C28.7382 45.2162 28.6257 45.2162 28.5133 45.1599C28.3445 45.1037 28.2321 45.0474 28.0633 44.9912L28.2321 44.5975Z" fill="white"/>
<path d="M30.2004 46.2285C30.4254 46.2285 30.5941 46.2285 30.7628 46.2847C30.9878 46.2847 31.1565 46.2847 31.3814 46.341C31.3814 45.9473 31.269 45.6099 30.8753 45.5536C30.8753 45.5536 30.8753 45.5536 30.819 45.5536C30.6503 45.5536 30.4816 45.7224 30.3691 45.9473C30.3129 46.0036 30.2567 46.116 30.2004 46.2285ZM30.7066 46.7347C30.5379 46.6784 30.3129 46.6784 30.0879 46.6784C30.0879 46.7347 30.0879 46.8471 30.0879 46.9034C30.0879 46.9596 30.0879 47.0721 30.0879 47.1283H29.5818C29.5818 47.0721 29.638 46.9596 29.638 46.8471C29.638 46.4535 29.7505 46.0036 29.9755 45.7224C30.1442 45.3287 30.4816 45.1037 30.819 45.1037C30.8753 45.1037 30.8753 45.1037 30.9315 45.1037C31.9438 45.2162 31.8876 46.1723 31.7751 47.0159C31.7751 47.1283 31.7751 47.2408 31.7751 47.3533L31.3252 47.2971C31.3252 47.1846 31.3252 47.0721 31.3252 46.9596C31.3252 46.9034 31.3252 46.8471 31.3814 46.7909C31.1565 46.7909 30.9315 46.7347 30.7066 46.7347Z" fill="white"/>
<path d="M32.8997 45.3286V45.891L33.912 45.0475L34.1932 45.3849L33.4621 46.0035L34.362 46.9033L34.0245 47.1845L33.1247 46.341L32.956 46.4534V47.2408H32.5061L32.4498 45.3286H32.8997Z" fill="white"/>
<path d="M35.1495 46.7908C34.9808 46.2847 34.8683 45.891 34.9245 45.4974C34.9245 45.0474 35.1495 44.71 35.5994 44.485C36.0493 44.3726 36.3305 44.5413 36.6117 44.8787C36.7804 45.2162 36.9491 45.6661 37.1179 46.2285L36.668 46.3409C36.6117 46.2285 36.5555 46.0597 36.5555 45.891L35.4869 46.2285C35.4869 46.3972 35.5432 46.5097 35.5994 46.6784L35.1495 46.7908ZM35.3745 45.4974C35.3745 45.6098 35.3745 45.6661 35.3745 45.7785L36.3868 45.4974C36.3305 45.3286 36.2743 45.2162 36.218 45.1599C36.1056 44.9912 35.9368 44.8787 35.7681 44.935C35.4869 45.0474 35.3745 45.2162 35.3745 45.4974Z" fill="white"/>
<path d="M38.1863 45.8348L37.2303 44.3163L37.1178 44.1476L37.2865 44.0351C37.399 43.9227 37.5115 43.8664 37.6239 43.8102C37.8489 43.6415 38.0739 43.529 38.2988 43.3603C38.4675 43.2478 38.6925 43.2478 38.9174 43.304C39.0299 43.3603 39.1424 43.4165 39.1986 43.529C39.3111 43.5852 39.3674 43.7539 39.3674 43.8664C39.3111 44.0351 39.3111 44.1476 39.1986 44.3163C39.2549 44.3163 39.3111 44.3163 39.3674 44.3726C39.6486 44.3726 39.8173 44.485 40.0422 44.5975L39.8173 44.9912C39.6486 44.8787 39.4798 44.8225 39.3111 44.8225C39.1424 44.7662 39.0299 44.7662 38.8612 44.8225C38.7487 44.935 38.6363 45.0474 38.5238 45.1037C38.4675 45.1599 38.4113 45.1599 38.3551 45.2162L38.58 45.5536L38.1863 45.8348ZM37.7364 44.2601L38.0739 44.8225C38.1301 44.8225 38.1863 44.7662 38.2426 44.71C38.3551 44.6538 38.4675 44.5975 38.5238 44.485C38.805 44.2039 38.8612 43.9789 38.8612 43.8664C38.8612 43.8102 38.8612 43.8102 38.8612 43.8102C38.8612 43.7539 38.805 43.7539 38.805 43.7539C38.6925 43.6977 38.58 43.7539 38.5238 43.7539C38.2988 43.8664 38.0739 44.0351 37.9051 44.2039C37.8489 44.2039 37.7927 44.2601 37.7364 44.2601Z" fill="white"/>
<path d="M41.0544 43.7539C40.8857 43.4727 40.717 43.2478 40.492 43.079C40.3795 42.9103 40.267 42.7416 40.0983 42.6291L39.7047 42.9666L39.4235 42.6291L40.6045 41.6168L40.8857 41.9543L40.4358 42.3479C40.6045 42.4604 40.717 42.5729 40.8857 42.7416C41.0544 42.9666 41.2793 43.1915 41.4481 43.4727L41.0544 43.7539Z" fill="white"/>
<path d="M42.5167 42.4042C42.4604 42.2917 42.3479 42.2355 42.2917 42.1792C41.7293 41.7293 41.0544 41.1669 41.6168 40.3233C42.0667 39.6485 42.5729 39.8172 43.079 40.1546C43.1915 40.2671 43.3602 40.3796 43.529 40.4921C43.6414 40.6045 43.7539 40.6608 43.8664 40.7733L43.5852 41.1107C43.4727 41.0545 43.3602 40.942 43.1915 40.8295L42.5167 41.7856L42.5729 41.8418C42.6854 41.898 42.7416 41.9543 42.7979 42.0668L42.5167 42.4042ZM42.0105 40.5483C41.7856 40.8857 41.9543 41.2232 42.1792 41.4481L42.8541 40.5483C42.7979 40.5483 42.7979 40.5483 42.7979 40.5483C42.5167 40.3233 42.2355 40.2109 42.0105 40.5483Z" fill="white"/>
<path d="M38.58 20.4148C38.6924 20.3023 38.58 20.246 38.6924 20.1898C38.8049 20.0773 39.761 19.065 39.8172 18.9525C40.2671 18.4464 40.6046 17.9965 40.942 17.4903C41.3357 17.0404 41.6169 16.5343 42.0668 15.8032C42.5167 15.0158 42.9666 14.2285 43.1916 13.3286C43.4165 12.4851 43.4728 11.529 43.0791 10.2917C42.7979 9.50439 42.2917 8.88576 41.6169 8.37961C40.8858 7.9297 39.9297 7.59227 38.8049 7.36731C37.3989 7.14235 36.3866 6.74868 35.4868 6.46749C35.1494 6.35501 34.812 6.24253 34.4745 6.13005C33.9121 5.96134 33.4622 5.68014 33.0123 5.34271C32.6186 5.06151 32.3374 4.78032 32 4.38664C31.7188 4.78032 31.3814 5.06151 31.0439 5.34271C30.594 5.68014 30.0879 5.96134 29.5817 6.13005C29.2443 6.24253 28.9069 6.35501 28.5694 6.46749C27.6696 6.74868 26.6573 7.14235 25.2513 7.36731C24.1265 7.59227 23.1705 7.9297 22.4394 8.37961C21.7083 8.88576 21.2021 9.50439 20.9772 10.2917C20.5835 11.529 20.5835 12.4851 20.8647 13.3286C21.0896 14.2285 21.5395 15.0158 21.9895 15.8032C22.3831 16.5343 22.7206 17.0404 23.058 17.4903C23.3954 17.9965 23.7891 18.4464 24.239 18.9525C24.4077 19.1775 24.6327 19.4025 24.8576 19.6274C24.9139 19.6837 24.7452 19.8524 24.8576 19.9648L24.9139 20.0211L24.7452 20.4148L24.6327 20.3585C24.3515 20.0211 24.0141 19.7399 23.7329 19.4025C23.283 18.8401 22.8893 18.3902 22.5518 17.884C22.1582 17.3779 21.8207 16.8717 21.4271 16.1406C20.9209 15.297 20.471 14.5097 20.1898 13.4974C19.9649 12.5413 19.9086 11.4728 20.3585 10.123C20.6397 9.11072 21.2583 8.37961 22.1019 7.87346C22.8893 7.31107 23.9016 6.97364 25.1388 6.74868C26.4886 6.46749 27.4446 6.13005 28.3445 5.84886C28.6819 5.73638 29.0193 5.6239 29.3568 5.51142C29.8629 5.34271 30.2566 5.11775 30.6503 4.83655C31.0439 4.49912 31.4376 4.10545 31.775 3.65554L32 3.3181L32.2812 3.65554C32.6186 4.10545 32.9561 4.49912 33.406 4.83655C33.7996 5.11775 34.1933 5.34271 34.6432 5.51142C35.0369 5.6239 35.3743 5.73638 35.7118 5.84886C36.5554 6.13005 37.5677 6.46749 38.9174 6.74868C40.0984 6.97364 41.167 7.31107 41.9543 7.87346C42.7979 8.37961 43.4165 9.11072 43.6977 10.123C44.0914 11.4728 44.0914 12.5413 43.8102 13.4974C43.5852 14.5097 43.1353 15.297 42.6292 16.1406C42.1793 16.8717 41.8418 17.3779 41.5044 17.884C41.167 18.3902 40.7733 18.8401 40.3234 19.4025C40.2109 19.5149 40.1547 19.5712 40.0422 19.6837C40.0422 19.7399 39.8172 19.9648 39.5923 20.1898C39.2548 20.471 39.5923 19.6837 39.536 19.7399L38.58 20.4148ZM21.2021 23.1705C21.1459 23.058 20.6397 23.058 20.6397 22.9455C20.4148 22.5518 20.246 22.1582 20.0773 21.8207C19.7399 21.2021 19.4025 20.7522 19.065 20.246C18.7276 19.7399 18.3902 19.29 17.8278 18.6714C17.2654 17.9402 16.6467 17.2654 15.9156 16.7592C15.1845 16.2531 14.2847 15.8594 13.0475 15.8032C12.1476 15.8032 11.4165 16.0281 10.7417 16.5343C10.0105 17.0967 9.39192 17.884 8.82953 18.8963C8.09842 20.1336 7.42355 20.9209 6.86116 21.652C6.6362 21.9332 6.41125 22.2144 6.18629 22.4956C5.84886 22.9455 5.39895 23.3392 4.94903 23.6204C4.55536 23.9016 4.16169 24.0703 3.71178 24.239C3.93673 24.6327 4.16169 25.0264 4.27417 25.4763C4.44288 25.9824 4.55536 26.5448 4.49912 27.1072C4.49912 27.5009 4.49912 27.8383 4.49912 28.232C4.49912 29.1318 4.44288 30.2003 4.21793 31.6063C4.04921 32.7311 4.04921 33.7434 4.27417 34.587C4.44288 35.4306 4.83656 36.1054 5.56766 36.6678C6.57997 37.3989 7.47979 37.7364 8.37961 37.7926C9.27944 37.8489 10.1793 37.6801 11.0791 37.5114C11.8664 37.3989 12.4851 37.2302 13.0475 37.0615C13.6098 36.949 14.1722 36.7241 14.7909 36.4991C15.1845 36.3866 15.6344 36.1617 16.0844 35.9367C16.4218 35.768 16.8717 35.5993 17.2091 35.4868L17.3216 35.768L16.5905 36.2179C16.3656 36.2742 16.9279 36.2742 16.6467 36.3866C16.5343 36.4429 16.4218 36.4991 16.3656 36.5554C15.9156 36.7803 15.4657 36.949 15.0158 37.1177C14.3409 37.3427 13.7786 37.5677 13.2162 37.7364C12.6538 37.9051 11.9789 38.0176 11.1916 38.1863C10.2355 38.355 9.27944 38.5237 8.32337 38.4675C7.31107 38.355 6.29877 38.0176 5.17399 37.174C4.3304 36.5554 3.82425 35.7118 3.5993 34.7557C3.37434 33.7996 3.43058 32.7311 3.5993 31.4938C3.82425 30.1441 3.82425 29.1318 3.82425 28.1757C3.82425 27.8383 3.82425 27.4446 3.88049 27.1072C3.88049 26.6011 3.82425 26.1511 3.65554 25.7012C3.48682 25.1951 3.26186 24.6889 2.92443 24.239L2.69947 23.8453L3.14938 23.7329C3.65554 23.5641 4.16169 23.3954 4.6116 23.1142C5.00527 22.833 5.34271 22.4956 5.6239 22.1019C5.84886 21.8207 6.07381 21.5395 6.35501 21.2583C6.9174 20.5272 7.53603 19.7399 8.26714 18.5589C8.88576 17.4903 9.56063 16.6467 10.348 16.0281C11.1353 15.4095 12.0351 15.1283 13.0475 15.1845C14.4534 15.2408 15.4657 15.6344 16.3093 16.1968C17.0967 16.7592 17.7153 17.4903 18.3339 18.2214C18.8963 18.8401 19.29 19.3462 19.6274 19.8524C19.9649 20.3585 20.246 20.8647 20.6397 21.4833C20.8647 21.8207 21.0334 22.2706 21.2021 22.6643C21.2583 22.7768 21.3146 22.8893 21.3708 23.0018L21.2021 23.1705ZM23.0018 21.7083L22.4956 21.4271L20.5272 18.6714C19.7399 17.5466 18.8963 16.4218 18.0527 15.2408L17.9965 15.1283C17.3779 14.3972 16.5905 13.9473 15.6344 13.6098C14.6221 13.2162 13.4411 13.0475 12.3726 13.1037C11.2478 13.1599 10.2355 13.5536 9.33568 14.116C8.26714 14.7909 7.36731 15.6907 6.74868 16.5905C6.18629 17.4341 5.79262 18.109 5.45518 18.7276C4.94903 19.5712 4.55536 20.246 3.88049 21.1459C3.37434 21.8207 3.09315 22.3831 2.53076 22.7206C2.13708 22.9455 1.63093 23.1705 1.18102 23.2829C1.46221 23.7329 1.68717 24.1265 1.85589 24.6327C2.08084 25.2513 1.91213 25.8699 1.85589 26.7135C1.85589 27.8383 1.74341 28.6257 1.57469 29.5817C1.46221 30.2566 1.34974 31.0439 1.23726 32.0562C1.12478 33.181 1.18102 34.4183 1.63093 35.5993C1.96837 36.6116 2.53076 37.5677 3.3181 38.2988C4.16169 39.0861 5.17399 39.7047 6.18629 40.0984C7.08612 40.4358 8.04218 40.5483 8.88576 40.4358C9.05448 40.3796 9.16696 40.3234 9.33568 40.3234C10.7417 39.8172 12.0914 39.4235 13.3849 39.0861C14.6221 38.6924 15.8594 38.2988 17.0404 37.9613C17.2654 37.9051 17.3779 38.13 17.6028 38.0738H17.8278L17.884 38.355C17.7153 38.4112 17.6028 38.5237 17.4341 38.58C16.1968 38.9736 14.9596 39.3111 13.7223 39.6485L13.5536 39.7047H13.4974C12.1476 40.1547 10.7979 40.5483 9.56063 40.942C8.77329 41.2794 8.09842 42.0105 7.59227 42.9104C6.9174 43.9789 6.41125 45.2724 6.18629 46.3972C5.96134 47.4657 6.07381 48.5905 6.35501 49.6028C6.74868 50.7838 7.36731 51.9086 8.15466 52.6959C8.82953 53.4833 9.33568 54.0457 9.84183 54.5518C10.5167 55.2267 11.0791 55.7891 11.8102 56.6889C12.2601 57.3075 12.5975 57.9824 12.8225 58.601C12.935 59.1072 12.9912 59.5571 12.9912 60.0633C13.4974 59.8945 13.9473 59.7821 14.4534 59.7821C15.1283 59.7258 15.8594 59.7821 16.6467 60.007C17.7153 60.3445 18.4464 60.6819 19.3462 61.0756C19.9649 61.3568 20.6397 61.638 21.652 62.0316C22.6643 62.4253 23.9578 62.6503 25.1951 62.594C26.2636 62.4815 27.3322 62.2003 28.232 61.5817C29.188 61.0193 30.0316 60.1757 30.6503 59.2759C31.2127 58.4886 31.6063 57.645 31.7188 56.7452C31.6626 55.2267 31.6626 53.8207 31.7188 52.4148C31.6626 51.3462 31.6626 50.2777 31.6626 49.1529C31.6626 48.8155 31.9438 48.7592 31.9438 48.3655L32.1125 48.5343C32.1125 48.9279 32.3374 48.8717 32.3374 49.2654C32.3937 50.3339 32.3374 51.3462 32.3374 52.4148C32.3374 53.8207 32.3937 55.2267 32.3374 56.7452C32.4499 57.645 32.7873 58.4886 33.3497 59.2759C34.0246 60.1757 34.8682 61.0193 35.8243 61.5817C36.7241 62.2003 37.7926 62.4815 38.8612 62.594C40.0984 62.6503 41.3357 62.4253 42.4042 62.0316C43.3603 61.638 44.0914 61.3568 44.71 61.0756C45.6098 60.6819 46.341 60.3445 47.4095 60.007C48.1968 59.7821 48.8717 59.7258 49.5466 59.7821C50.0527 59.7821 50.5589 59.8945 51.0088 60.0633C51.0088 59.5571 51.1213 59.1072 51.2337 58.601C51.4587 57.9824 51.7399 57.3075 52.246 56.6889C52.9209 55.7891 53.5395 55.2267 54.2144 54.5518C54.6643 54.0457 55.2267 53.4833 55.9016 52.6959C56.6327 51.9086 57.3076 50.7838 57.7012 49.6028C57.9824 48.5905 58.0949 47.4657 57.8699 46.3972C57.5888 45.2724 57.1388 43.9789 56.464 42.9104C55.9016 42.0105 55.283 41.2794 54.4956 40.942C53.2584 40.5483 51.9649 40.1547 50.7276 39.761H50.6714L50.5589 39.7047C49.2654 39.3673 47.5782 38.9174 46.116 38.355L46.2285 38.1863C46.7346 38.2425 47.0158 37.9613 47.0721 37.9613C48.3093 38.355 49.7153 38.8049 50.8401 39.1423C52.0773 39.4798 53.3146 39.8172 54.7206 40.3234C54.833 40.3234 55.0018 40.3796 55.1142 40.4358C56.0141 40.5483 56.9701 40.4358 57.8699 40.0984C58.8823 39.7047 59.8946 39.0861 60.7381 38.2988C61.5255 37.5677 62.0879 36.6116 62.4253 35.5993C62.819 34.4183 62.9315 33.181 62.819 32.0562C62.7065 31.0439 62.594 30.2566 62.4815 29.5817C62.3128 28.6257 62.2004 27.8383 62.1441 26.7135C62.1441 25.8699 61.9192 25.3076 62.1441 24.6327C62.3128 24.1828 62.5378 23.7329 62.8752 23.3392C62.3691 23.1705 61.9192 23.0018 61.4692 22.7206C60.9069 22.3831 60.6819 21.8207 60.1757 21.1459C59.5009 20.246 59.051 19.5712 58.6011 18.7276C58.2074 18.109 57.8137 17.4341 57.3076 16.5905C56.6889 15.6907 55.7891 14.7909 54.7206 14.116C53.8207 13.5536 52.7522 13.1599 51.6837 13.1037C50.5589 13.0475 49.3779 13.2162 48.3656 13.5536C47.522 13.8348 46.7346 14.2847 46.1722 14.8471C46.116 14.9596 46.116 15.0158 46.0598 15.0721V15.1283L41.5606 21.3708L41.0545 21.8207L40.5483 22.2144L40.6608 21.877C40.8858 21.5958 40.717 21.4833 40.8858 21.2021C41.5606 20.246 42.2355 19.29 42.9104 18.3339C43.754 17.0967 44.6538 15.8594 45.4974 14.6221C45.5536 14.5659 45.6098 14.5659 45.6098 14.5097C45.9473 13.7786 46.116 12.935 46.116 12.0914C46.116 10.9666 45.8348 9.84183 45.3849 8.77328C44.9912 7.76098 44.2601 6.9174 43.4728 6.24253C42.4605 5.45518 41.3357 4.94903 40.2109 4.66784C39.1986 4.44288 38.4675 4.3304 37.7926 4.16169C36.8366 3.99297 36.0492 3.82425 34.9807 3.48682C34.1933 3.26186 33.5747 2.75571 33.0123 2.36204C32.6186 2.0246 32.3374 1.68717 32 1.2935C31.7188 1.68717 31.3814 2.0246 30.9877 2.36204C30.4815 2.75571 29.8629 3.26186 29.0756 3.48682C28.007 3.82425 27.2197 3.99297 26.2636 4.16169C25.5888 4.3304 24.8014 4.44288 23.8453 4.66784C22.7206 4.94903 21.5958 5.45518 20.5835 6.24253C19.7399 6.9174 19.065 7.76098 18.6151 8.77328C18.2214 9.84183 17.9402 10.9666 17.9402 12.0914C17.9402 13.0475 18.109 13.9473 18.5589 14.7346L18.6151 14.8471L20.9772 18.2214L21.1459 18.3902C21.7645 19.2337 22.4394 20.1336 23.058 21.0334C23.058 21.0334 23.2267 21.7645 23.283 21.877L23.0018 21.7083ZM8.15466 41.1107C7.42355 41.1107 6.69244 40.9982 5.96134 40.717C4.83656 40.2671 3.76801 39.5923 2.86819 38.8049C1.96837 37.9613 1.34974 36.949 1.0123 35.8242C0.56239 34.5308 0.449912 33.181 0.56239 32C0.674868 30.9315 0.787346 30.2003 0.899824 29.4692C1.06854 28.5694 1.18102 27.7821 1.23726 26.6573C1.23726 25.9262 1.46221 25.42 1.23726 24.8576C1.06854 24.2953 0.731107 23.7891 0.337434 23.2829L0 22.8893L0.56239 22.7768C1.12478 22.6643 1.68717 22.4394 2.19332 22.1582C2.69947 21.8207 2.92443 21.3708 3.3181 20.7522C3.99297 19.9086 4.38664 19.2337 4.89279 18.3902C5.23023 17.8278 5.6239 17.1529 6.18629 16.2531C6.86116 15.2408 7.81722 14.2847 8.99824 13.5536C9.95431 12.935 11.1353 12.4851 12.3163 12.4288C13.4974 12.4288 14.7346 12.5975 15.8594 12.9912C16.4218 13.1599 16.9842 13.4411 17.4903 13.7786C17.3216 13.2162 17.2654 12.6538 17.2654 12.0914C17.2654 10.8541 17.5466 9.61687 18.0527 8.54833C18.5026 7.42355 19.29 6.46749 20.1898 5.73638C21.2583 4.89279 22.4956 4.3304 23.6766 4.04921C24.6889 3.82425 25.4763 3.65554 26.1511 3.54306C27.051 3.37434 27.8383 3.20562 28.9069 2.86819C29.5817 2.64323 30.1441 2.24956 30.594 1.85589C31.0439 1.46221 31.4376 1.0123 31.7188 0.506151L32 0L32.2812 0.506151C32.6186 1.0123 33.0123 1.46221 33.4622 1.85589C33.9121 2.24956 34.4745 2.64323 35.1494 2.86819C36.2179 3.20562 37.0053 3.37434 37.9051 3.54306C38.58 3.65554 39.3673 3.82425 40.3796 4.04921C41.5606 4.3304 42.7979 4.89279 43.8664 5.73638C44.7663 6.46749 45.5536 7.42355 46.0035 8.54833C46.4534 9.61687 46.7346 10.8541 46.7346 12.0914C46.7909 12.5975 46.7346 13.1599 46.6221 13.6661C47.0721 13.3849 47.5782 13.1599 48.1406 12.935C49.2654 12.5413 50.5026 12.4288 51.6837 12.4288C52.9209 12.4851 54.0457 12.935 55.058 13.5536C56.1828 14.2847 57.1388 15.2408 57.8137 16.2531C58.4323 17.1529 58.826 17.8278 59.1634 18.3902C59.6134 19.2337 60.007 19.9086 60.6819 20.7522C61.1318 21.3708 61.3005 21.877 61.8067 22.1582C62.3128 22.4956 62.8752 22.6643 63.4939 22.7768L64 22.8893L63.6626 23.3392C63.2689 23.7891 62.9877 24.2953 62.7627 24.8576C62.594 25.42 62.7627 25.9262 62.819 26.6573C62.8752 27.7821 62.9877 28.5694 63.1002 29.4692C63.2127 30.2003 63.3814 30.9315 63.4939 32C63.6063 33.181 63.4939 34.5308 63.0439 35.8242C62.7065 36.949 62.0879 37.9613 61.1318 38.8049C60.2882 39.5923 59.2197 40.2671 58.0949 40.717C57.3638 40.9982 56.6327 41.1107 55.9016 41.1107C56.2953 41.5606 56.6889 42.0105 57.0264 42.5729C57.7575 43.6977 58.2636 45.0474 58.4886 46.2847C58.7698 47.4657 58.6573 48.6467 58.3199 49.7715C57.9262 51.065 57.1951 52.246 56.4077 53.1459C55.6766 53.9332 55.1705 54.4956 54.6643 55.0018C53.9895 55.6766 53.4271 56.239 52.7522 57.0826C52.3023 57.645 52.0211 58.2074 51.8524 58.7698C51.6837 59.3322 51.6274 59.9508 51.6837 60.5694L51.7399 61.0756L51.2337 60.8506C50.6714 60.6257 50.109 60.4569 49.4903 60.4007C48.9279 60.3445 48.3093 60.4569 47.5782 60.6257C46.5659 60.9631 45.8348 61.3005 44.9912 61.638C44.3163 61.9754 43.5852 62.2566 42.6292 62.6503C41.5044 63.0439 40.1547 63.3251 38.8049 63.2126C37.6239 63.1564 36.4991 62.819 35.4306 62.1441C34.4745 61.4692 33.5185 60.6257 32.8436 59.6696C32.5062 59.1634 32.225 58.6573 32 58.1511C31.8313 58.6573 31.5501 59.1634 31.2127 59.6696C30.5378 60.6257 29.5817 61.4692 28.5694 62.1441C27.5571 62.819 26.3761 63.1564 25.1951 63.2126C23.9016 63.3251 22.5518 63.0439 21.3708 62.6503C20.4148 62.2566 19.7399 61.9754 19.065 61.638C18.2214 61.3005 17.4903 60.9631 16.4218 60.6257C15.7469 60.4569 15.1283 60.3445 14.5097 60.4007C13.9473 60.4569 13.3849 60.6257 12.8225 60.8506L12.3163 61.0756L12.3726 60.5694C12.3726 59.9508 12.3163 59.3322 12.1476 58.7698C11.9789 58.2074 11.6977 57.645 11.2478 57.0826C10.6292 56.239 10.0668 55.6766 9.39192 55.0018C8.88576 54.4956 8.32337 53.9332 7.64851 53.1459C6.86116 52.246 6.13005 51.065 5.73638 49.7715C5.39895 48.6467 5.28647 47.4657 5.56766 46.2847C5.79262 45.0474 6.29877 43.6977 7.02988 42.5729C7.36731 42.0105 7.70475 41.5606 8.15466 41.1107ZM29.6942 49.3778C29.6942 49.5466 29.9192 48.9279 29.9754 49.0967C29.9754 49.3778 30.0316 49.884 30.0879 49.9965C30.1441 50.6713 30.1441 51.29 30.2004 51.9086C30.2004 52.5272 30.1441 53.1459 30.0879 53.9332C30.0316 54.9455 29.9754 55.8453 29.638 56.8014C29.3005 57.7575 28.6819 58.6573 27.6134 59.5009C26.7698 60.1757 25.8699 60.4569 24.8576 60.4007C23.9016 60.4007 22.833 60.0633 21.7083 59.6133C20.471 59.051 19.4587 58.7698 18.5589 58.4886C18.2214 58.4323 17.8278 58.3199 17.5466 58.2074C17.0404 58.0387 16.5905 57.9824 16.0844 58.0387C15.5782 58.0387 15.0158 58.1511 14.5097 58.3761L14.116 58.4886V58.0387C14.0598 57.5325 14.0035 56.9701 13.8348 56.464C13.6661 56.0141 13.4411 55.5641 13.1599 55.2267C12.935 54.9455 12.71 54.6081 12.4851 54.3269C11.9789 53.5958 11.3603 52.7522 10.4042 51.7961C9.50439 50.8963 8.82953 49.9965 8.49209 49.0967C8.09842 48.1968 8.04218 47.2408 8.32337 46.2847C8.77329 44.935 9.39192 44.0351 10.1793 43.4165C10.9104 42.7416 11.754 42.348 12.6538 41.8981C13.3849 41.5606 14.0035 41.3357 14.5659 41.1107C15.1283 40.8858 15.6907 40.717 16.3656 40.5483C16.8155 40.4358 17.7153 40.3234 18.1652 40.2109L17.8278 40.7733L18.3902 40.8295L18.2777 40.8858C17.8278 40.942 16.9279 41.0545 16.5343 41.167C15.8594 41.3919 15.3533 41.5606 14.7909 41.7293C14.2285 41.9543 13.6661 42.1793 12.935 42.5167C12.0914 42.9104 11.304 43.304 10.5729 43.8664C9.89807 44.4851 9.33568 45.2724 8.99824 46.4534C8.71705 47.297 8.77329 48.0844 9.11072 48.8717C9.44815 49.7153 10.0105 50.5026 10.8541 51.29C11.8664 52.3585 12.4851 53.2021 13.0475 53.9332C13.2724 54.2144 13.4411 54.4956 13.6661 54.7768C14.0035 55.2267 14.2847 55.7329 14.4534 56.2952C14.6221 56.6889 14.6784 57.1388 14.7346 57.5887C15.1845 57.4763 15.6344 57.42 16.0844 57.3638C16.6467 57.3638 17.1529 57.42 17.7153 57.5887C18.0527 57.7012 18.3902 57.8137 18.7276 57.8699C19.6837 58.1511 20.696 58.4323 21.9895 58.9947C23.058 59.4446 24.0141 59.7258 24.8576 59.7821C25.7575 59.7821 26.4886 59.5571 27.1634 58.9947C28.1757 58.2074 28.6819 57.42 29.0193 56.5764C29.3005 55.7329 29.413 54.833 29.4692 53.877C29.5255 53.0896 29.5255 52.471 29.5255 51.9086C29.5255 51.29 29.4692 50.7276 29.413 50.0527C29.413 49.9402 29.3005 49.0404 29.2443 48.9842C29.2443 48.8717 29.2443 48.8155 29.2443 48.703L29.5255 48.6467L29.6942 49.3778ZM34.6432 48.9279C34.587 49.0404 34.812 49.0404 34.812 49.1529C34.6432 49.884 34.587 50.6151 34.5308 51.29C34.4745 52.0773 34.5308 52.9209 34.587 53.877C34.6432 54.833 34.7557 55.7329 35.0369 56.5764C35.3181 57.42 35.8805 58.2074 36.8366 58.9947C37.5677 59.5571 38.2988 59.7821 39.1424 59.7821C40.0422 59.7258 40.9982 59.4446 42.0668 58.9947C43.3603 58.4323 44.3726 58.1511 45.2724 57.8699C45.6098 57.8137 45.9473 57.7012 46.341 57.5887C46.8471 57.42 47.4095 57.3638 47.9719 57.3638C48.4218 57.42 48.8717 57.4763 49.3216 57.5887C49.3779 57.1388 49.4341 56.6889 49.6028 56.2952C49.7715 55.7329 49.9965 55.2267 50.3902 54.7768C50.5589 54.4956 50.7838 54.2144 51.0088 53.9332C51.5712 53.2021 52.1898 52.3585 53.2021 51.29C53.9895 50.5026 54.6081 49.7153 54.9455 48.8717C55.283 48.0844 55.3392 47.297 55.058 46.4534C54.6643 45.2724 54.1019 44.4851 53.4271 43.8664C52.7522 43.304 51.9649 42.9104 51.1213 42.5167C50.3902 42.1793 49.8278 41.9543 49.2654 41.7293C48.703 41.5606 48.1406 41.3919 47.4657 41.167C47.1283 41.0545 45.6661 40.8295 45.2724 40.7733H45.1599C45.1037 40.6608 46.0035 40.7733 46.116 40.5483C46.116 40.4921 45.9473 40.2671 45.9473 40.2109C46.5659 40.3234 47.3533 40.4921 47.6344 40.5483C48.3093 40.717 48.8717 40.8858 49.4903 41.1107C50.0527 41.3357 50.6151 41.5606 51.4025 41.8981C52.246 42.348 53.1459 42.7416 53.877 43.4165C54.6643 44.0351 55.283 44.935 55.6766 46.2847C56.0141 47.2408 55.9578 48.1968 55.5641 49.0967C55.1705 49.9965 54.5518 50.8963 53.652 51.7961C52.696 52.7522 52.0773 53.5958 51.5149 54.3269C51.29 54.6081 51.1213 54.9455 50.8963 55.2267C50.5589 55.5641 50.3339 56.0141 50.2214 56.464C50.0527 56.9701 49.9402 57.5325 49.9402 58.0387V58.4886L49.4903 58.3761C48.9842 58.1511 48.478 58.0387 47.9156 58.0387C47.4657 57.9824 46.9596 58.0387 46.5097 58.2074C46.1722 58.3199 45.8348 58.4323 45.4411 58.4886C44.5975 58.7698 43.5852 59.051 42.348 59.6133C41.2232 60.0633 40.1547 60.4007 39.1986 60.4007C38.1863 60.4569 37.2865 60.1757 36.4429 59.5009C35.3743 58.6573 34.7557 57.7575 34.4183 56.8014C34.0808 55.8453 34.0246 54.9455 33.9121 53.9332C33.8559 52.9771 33.8559 52.0773 33.9121 51.2337C33.9121 50.6713 33.9684 50.109 34.0808 49.4903C34.1371 49.2091 34.4183 48.9842 34.4745 48.703L34.6432 48.9279ZM42.7979 23.058C42.8541 22.8893 42.9104 22.7768 42.9666 22.6643C43.0228 22.5518 42.9104 22.4956 42.9666 22.3831C43.0791 22.1019 43.2478 21.7645 43.4165 21.4833C43.754 20.8647 44.0914 20.3585 44.4288 19.8524C44.7663 19.3462 45.1599 18.8401 45.6661 18.2214C46.341 17.4903 46.9033 16.7592 47.7469 16.1968C48.5905 15.6344 49.6028 15.2408 51.0088 15.1845C52.0211 15.1283 52.9209 15.4095 53.7083 16.0281C54.4956 16.6467 55.1705 17.4903 55.7891 18.5589C56.464 19.7399 57.1388 20.5272 57.7012 21.2583C57.9824 21.5395 58.2074 21.8207 58.3761 22.1019C58.7135 22.4956 59.051 22.833 59.4446 23.1142C59.8946 23.3954 60.4007 23.5641 60.9069 23.7329L61.3568 23.8453L61.0756 24.239C60.7944 24.6889 60.5132 25.1951 60.4007 25.7012C60.232 26.1511 60.1757 26.6011 60.1757 27.1072C60.1757 27.4446 60.1757 27.8383 60.232 28.1757C60.232 29.1318 60.232 30.1441 60.4569 31.4938C60.6257 32.7311 60.6819 33.7996 60.4007 34.7557C60.1757 35.7118 59.7258 36.5554 58.8823 37.174C57.7575 38.0176 56.7452 38.355 55.7329 38.4675C54.7206 38.5237 53.8207 38.355 52.8647 38.1863C52.0211 38.0176 51.4025 37.9051 50.8401 37.7364C50.2214 37.5677 49.7153 37.3427 49.0404 37.1177C48.6467 36.949 48.1968 36.7803 47.8032 36.5554C47.6907 36.4991 47.5782 36.4991 47.4657 36.3866C47.4095 36.2742 47.1845 35.993 47.0158 35.8805L47.4095 35.7118C47.6344 35.8242 47.5782 35.7118 47.8594 35.8242C47.9156 35.8805 48.0281 35.9367 48.1406 35.993C48.478 36.1617 48.8717 36.3866 49.2654 36.4991C49.884 36.7241 50.4464 36.949 51.0088 37.0615C51.5712 37.2302 52.1898 37.3989 52.9772 37.5114C53.877 37.6801 54.7768 37.8489 55.6766 37.7926C56.5765 37.7364 57.4763 37.3989 58.4886 36.6678C59.1634 36.1054 59.6134 35.4306 59.7821 34.587C60.007 33.7434 59.9508 32.7311 59.7821 31.6063C59.5571 30.2003 59.5571 29.1318 59.5571 28.232C59.5571 27.8383 59.5571 27.5009 59.5009 27.1072C59.5009 26.5448 59.5571 25.9824 59.7258 25.4763C59.8946 25.0264 60.0633 24.6327 60.2882 24.239C59.8946 24.0703 59.4446 23.9016 59.1072 23.6204C58.6011 23.3392 58.2074 22.9455 57.8699 22.4956C57.645 22.2144 57.42 21.9332 57.1951 21.652C56.6327 20.9209 55.9578 20.1336 55.2267 18.8963C54.6643 17.884 54.0457 17.0967 53.3146 16.5343C52.6397 16.0281 51.9086 15.8032 51.0088 15.8032C49.7715 15.8594 48.8717 16.2531 48.1406 16.7592C47.3533 17.2654 46.7909 17.9402 46.1722 18.6714C45.6661 19.29 45.2724 19.7399 44.9912 20.246C44.5975 20.7522 44.3163 21.2021 43.9789 21.8207C43.754 22.1582 43.5852 22.5518 43.4165 22.9455C43.3603 23.1142 42.9104 23.1705 42.8541 23.2829L42.7979 23.058Z" fill="white"/>
<path d="M49.9963 12.5412C50.4462 10.7978 50.6712 9.50434 50.5024 7.87341C49.1527 8.26708 47.8592 8.82947 46.4532 9.84177L46.2283 9.1669C47.6342 8.26708 49.0965 7.53597 50.7274 7.1423L51.0648 7.08606L51.1211 7.42349C51.346 9.11066 51.2335 10.7416 50.6712 12.485L49.9963 12.5412Z" fill="white"/>
<path d="M57.7013 44.3726C59.4447 44.3164 60.7382 44.1476 62.3129 43.4728C61.5255 42.2917 60.5695 41.2232 59.1635 40.2109L59.7259 39.8172C61.0756 40.8295 62.1442 42.0106 63.044 43.4728L63.2127 43.754L62.9315 43.9227C61.3568 44.5975 59.7821 45.0475 57.9263 44.9912L57.7013 44.3726Z" fill="white"/>
<path d="M29.7505 61.2443C30.3692 62.9314 30.9316 64.1125 32.0001 65.4059C32.8999 64.3374 33.7435 62.8752 34.2497 61.2443L34.812 61.6942C34.4184 62.9314 33.3498 64.8436 32.2251 66.1371L32.0001 66.4183L31.7189 66.1371C30.6504 64.8436 29.7505 63.4376 29.2444 61.6942L29.7505 61.2443Z" fill="white"/>
<path d="M5.11788 40.2109C3.7119 41.2232 2.6996 42.0668 1.74354 43.4165C3.03704 44.0352 4.44301 44.3726 6.13018 44.5413L5.84899 45.1599C4.21806 44.9912 2.64336 44.5975 1.12491 43.8664L0.787476 43.6977L1.01243 43.3603C1.91226 41.9543 3.03704 40.7733 4.61173 39.8172L5.11788 40.2109Z" fill="white"/>
<path d="M17.6027 10.2354C16.1968 9.1669 15.072 8.4358 13.4973 7.92964C13.3286 9.33562 13.3848 10.7978 13.7222 12.485L13.1036 12.4288C12.7099 10.7978 12.6537 9.11066 12.9349 7.47973L12.9911 7.08606L13.3286 7.19854C14.9595 7.64845 16.4217 8.37956 17.7715 9.61682L17.6027 10.2354Z" fill="white"/>
<path fill-rule="evenodd" clip-rule="evenodd" d="M31.9999 28.9068C34.6432 28.9068 36.8365 31.1002 36.8365 33.7434C36.8365 36.3866 34.6432 38.5237 31.9999 38.5237C29.3567 38.5237 27.2196 36.3866 27.2196 33.7434C27.2196 31.1002 29.3567 28.9068 31.9999 28.9068ZM31.9999 28.5694C34.8681 28.5694 37.2301 30.8752 37.2301 33.7434C37.2301 36.6116 34.8681 38.9174 31.9999 38.9174C29.188 38.9174 26.8259 36.6116 26.8259 33.7434C26.8259 30.8752 29.188 28.5694 31.9999 28.5694Z" fill="white"/>
<path d="M22.8891 45.1037C22.4392 45.5536 21.9331 46.0035 21.4832 46.4534C20.3584 47.4657 19.2898 48.478 18.4462 49.6591C17.8276 50.6151 17.4902 51.7399 17.209 52.8085C17.0965 53.2021 16.984 53.5958 16.8153 53.9895C17.1528 53.7645 17.5464 53.5958 17.8839 53.3708C18.8962 52.7522 19.8522 52.1898 20.6396 51.3462C21.5956 50.2777 22.3267 48.9842 23.0578 47.6907C23.3953 47.1283 23.7327 46.5659 24.0701 46.0035C23.6765 45.7223 23.2828 45.4411 22.8891 45.1037ZM22.6642 49.0967C22.4392 49.4903 22.2705 49.884 22.158 50.3339C22.1018 50.6151 22.0455 50.8963 21.9893 51.2338C22.6642 50.7276 23.2266 50.109 23.7327 49.3779C24.2389 48.5343 24.745 47.6345 25.1949 46.6222C24.9137 46.5097 24.6325 46.341 24.4076 46.1722C24.0139 46.7346 23.7327 47.297 23.3953 47.8594C23.1703 48.2531 22.9454 48.703 22.6642 49.0967ZM25.5324 46.7909C25.3636 47.1283 25.1949 47.4095 25.0262 47.7469C24.8575 48.1406 24.745 48.5905 24.6888 48.9842C24.6325 49.3779 24.5763 49.7153 24.5763 50.0527C24.9137 49.7153 25.1949 49.3216 25.3636 48.8717C25.6448 48.3093 25.8698 47.5782 25.9823 47.0158C25.8136 46.9596 25.7011 46.9034 25.5324 46.7909ZM24.3513 49.0404C24.2389 49.2092 24.1264 49.3779 24.0139 49.5466C23.3953 50.4464 22.7204 51.1775 21.8768 51.6837L21.6519 51.8524V51.515C21.6519 51.1775 21.7081 50.8401 21.7643 50.5027C21.4832 50.8963 21.202 51.2338 20.8645 51.5712C20.0772 52.471 19.0649 53.0896 18.0526 53.652C17.3215 54.1019 16.7028 54.4956 16.028 55.058C16.4216 54.2144 16.5904 53.5958 16.8716 52.7522C17.209 51.5712 17.4902 50.4464 18.1651 49.4903C18.39 49.0967 18.6712 48.7592 18.9524 48.4218C18.6712 48.5905 18.39 48.703 18.0526 48.7592L17.7714 48.8717L17.8839 48.5343C18.1088 47.8032 18.5025 47.1283 19.0086 46.4534C19.0086 46.4534 18.9524 46.4534 18.9524 46.5097C18.6712 46.5659 18.4462 46.6222 18.1651 46.6222L17.7714 46.6784L17.9963 46.341C18.2775 45.9473 18.5587 45.6099 18.8962 45.2724C18.7274 45.3287 18.5587 45.3287 18.39 45.3287L17.9963 45.3849L18.2213 45.1037C18.5025 44.6538 18.8399 44.2039 19.2336 43.8102C18.9524 43.9227 18.6712 43.9789 18.39 44.0352L18.0526 44.0914L18.2213 43.754C18.4462 43.4165 18.6712 43.1353 18.9524 42.8541C18.6712 42.9104 18.4462 42.9666 18.1651 42.9666H17.8839L17.9963 42.7417C18.1651 42.4042 18.3338 42.1793 18.615 41.8981C18.39 41.9543 18.2213 41.9543 18.0526 41.9543H17.8276L17.9401 41.7294C18.0526 41.4482 18.2775 41.167 18.5025 40.942C18.2775 40.9983 17.9963 40.9983 17.7714 40.9983L17.5464 40.942L17.6027 40.7171C17.7151 40.4921 17.8839 40.2109 18.1088 40.0422C18.1088 39.986 18.1088 39.986 18.1651 39.986C17.9401 39.986 17.7151 39.986 17.5464 39.986L17.2652 39.9297L17.3777 39.7048C17.4902 39.536 17.6589 39.3111 17.8276 39.1986C17.6027 39.1424 17.4339 39.0861 17.209 38.9737L17.0403 38.9174L17.1528 38.7487C17.2652 38.58 17.4339 38.4113 17.6027 38.2425C17.3777 38.2425 17.1528 38.1301 16.9278 38.0738L16.7028 37.9614L16.8716 37.7926C16.984 37.6802 17.0965 37.5677 17.209 37.4552C17.0403 37.399 16.8153 37.3427 16.6466 37.2865L16.4216 37.174L16.5904 37.0053C16.7028 36.8366 16.8716 36.7241 17.0403 36.6116C16.8153 36.6116 16.5904 36.5554 16.4216 36.4991L16.0842 36.3867L16.3092 36.1617C16.5341 35.993 16.7591 35.8243 16.984 35.7118H17.0403C16.984 35.7118 16.9278 35.7118 16.9278 35.6556C16.6466 35.6556 16.3654 35.5431 16.028 35.4868L15.6905 35.3744L16.028 35.1494C16.2529 35.0369 16.4779 34.8682 16.7028 34.7557C16.7028 34.7557 16.6466 34.7557 16.5904 34.7557C16.2529 34.6995 15.9155 34.587 15.5218 34.4745L15.1844 34.3058L15.5218 34.1371C15.7468 34.0246 16.028 33.9121 16.3092 33.7997C15.8593 33.7434 15.4093 33.631 14.9594 33.4622L14.6782 33.3498L14.9032 33.1248C15.0719 33.0123 15.2406 32.9561 15.4093 32.8436C15.0157 32.7874 14.622 32.6749 14.2283 32.4499L13.8909 32.2812L14.2846 32.1125C14.5095 32.0563 14.7907 31.9438 15.0719 31.8875C14.5658 31.8313 14.0596 31.7188 13.4972 31.4376L13.216 31.3252L13.4972 31.1564C13.6097 31.044 13.7784 30.9877 14.0034 30.9315C13.1598 30.6503 12.4849 30.3128 11.8663 29.8629L11.5851 29.638L11.9225 29.5255C12.26 29.413 12.5974 29.3568 12.9348 29.3005C12.4849 29.1881 12.035 29.0194 11.5851 28.8506C10.5165 28.4007 9.56049 27.6696 8.66066 26.9385C8.04203 26.4324 7.4234 25.9824 6.74854 25.5888C7.59212 25.5888 8.26699 25.5325 9.11057 25.4763C10.2916 25.4201 11.4726 25.3076 12.5974 25.5888C13.0473 25.7013 13.441 25.8137 13.8909 25.9824C13.6659 25.7575 13.441 25.5325 13.2723 25.2513L13.0473 24.9701H13.3847C14.2846 24.9139 15.2406 25.1389 16.1967 25.4763L16.1404 25.4201C15.9717 25.1951 15.803 24.9701 15.6905 24.7452L15.5781 24.4078L15.9155 24.5202C16.4779 24.6327 17.0403 24.8014 17.5464 25.0264C17.3215 24.7452 17.209 24.5202 17.0965 24.239L16.9278 23.9016L17.3215 24.0141C17.8839 24.1828 18.4462 24.464 18.9524 24.8014C18.7274 24.464 18.5025 24.1266 18.3338 23.7891L18.2213 23.4517L18.5587 23.5079C18.8962 23.6204 19.2336 23.7891 19.571 23.9578C19.4586 23.7891 19.3461 23.5642 19.2336 23.3392L19.1211 23.058L19.4586 23.1143C19.796 23.2267 20.1334 23.3392 20.4146 23.5079C20.3021 23.283 20.2459 23.1143 20.1897 22.8331L20.0772 22.5519L20.3584 22.6643C20.6396 22.7206 20.8083 22.7768 21.0332 22.9455C20.977 22.7768 20.9208 22.6081 20.8645 22.4394L20.8083 22.1582L21.0895 22.2144C21.3144 22.2707 21.4832 22.3269 21.7081 22.4394C21.5956 22.2707 21.5394 22.102 21.4832 21.877L21.4269 21.5958L21.7081 21.7083C21.9893 21.7645 22.2705 21.877 22.4392 22.0457C22.383 21.8208 22.383 21.5396 22.3267 21.3146V20.9209L22.6079 21.1459C22.7204 21.2021 22.8329 21.3146 22.8891 21.3708C22.8329 21.2021 22.8329 20.9772 22.8891 20.7522L22.9454 20.5835L23.1141 20.6397C23.2828 20.696 23.4515 20.7522 23.564 20.8647C23.5078 20.7522 23.5078 20.6397 23.5078 20.5273V20.2461L23.7327 20.3585C23.9014 20.4148 24.0701 20.471 24.2389 20.5835C24.1826 20.4148 24.1826 20.2461 24.1264 20.0211V19.7399L24.4076 19.8524C24.5201 19.9086 24.6325 19.9649 24.745 20.0774C24.745 19.8524 24.6888 19.6837 24.745 19.4587V19.1775L24.97 19.29C25.1949 19.4025 25.3636 19.5712 25.5324 19.6837C25.4761 19.4587 25.4199 19.1775 25.4199 18.8963V18.5589L25.7011 18.7276C25.926 18.8963 26.0948 19.065 26.2072 19.2338C26.151 18.8963 26.0948 18.5589 26.151 18.1652V17.884L26.3759 18.0527C26.7134 18.2215 26.9383 18.4464 27.1633 18.7276V18.6714C27.0508 18.1652 27.0508 17.6028 27.0508 17.0404L27.1071 16.7592L27.332 16.928C27.6132 17.1529 27.7819 17.3216 28.0069 17.6028C27.9506 17.3216 27.9506 17.0967 28.0069 16.8155C28.0069 16.3656 28.0631 15.8594 28.2318 15.4095L28.2881 15.1283L28.513 15.3533C28.738 15.5782 28.9629 15.8594 29.1317 16.1969C29.0754 15.1846 29.1317 14.1723 29.4691 13.3287L29.5816 12.9912L29.8065 13.2724C29.9752 13.4974 30.144 13.7786 30.2564 14.0598C30.2564 13.6099 30.2564 13.2162 30.3127 12.7663C30.3689 11.5853 30.8188 10.4605 31.2687 9.39194C31.5499 8.71707 31.7749 8.0422 31.9998 7.3111C32.281 7.98596 32.506 8.71707 32.7872 9.39194C33.1809 10.4605 33.6308 11.5853 33.7433 12.7663C33.7433 13.2162 33.7433 13.7223 33.7433 14.1723C33.912 13.8348 34.0807 13.5536 34.3056 13.2724L34.4744 12.9912L34.5868 13.3287C34.868 14.116 34.9805 14.9596 34.9805 15.8594C35.093 15.6345 35.2055 15.4095 35.3742 15.297L35.5991 15.0721L35.6554 15.4095C35.7116 15.9157 35.7679 16.4218 35.7679 16.8717C35.7679 17.0967 35.7679 17.2654 35.7679 17.4341C35.9366 17.0967 36.1615 16.8155 36.4427 16.5905L36.7239 16.3093V16.703C36.7239 17.1529 36.6677 17.6028 36.6114 18.0527C36.7802 17.884 36.8926 17.6591 37.1176 17.4904L37.3988 17.2092V17.6028C37.455 18.0527 37.3988 18.5027 37.3426 18.9526C37.3426 19.065 37.3426 19.1213 37.2863 19.2338C37.5113 18.9526 37.7362 18.6714 38.0174 18.4464L38.2986 18.1652V18.5589C38.2986 18.8401 38.2986 19.065 38.2424 19.3462C38.3549 19.1775 38.5236 19.065 38.6923 18.9526L38.9735 18.7276V19.1213C38.9172 19.4587 38.9172 19.7399 38.861 20.0774C39.0297 19.8524 39.2547 19.6837 39.4796 19.5712L39.7046 19.4587V19.7399C39.7608 19.9649 39.7046 20.1898 39.6484 20.4148C39.8171 20.3023 39.9295 20.2461 40.0983 20.1336L40.3232 20.0774V20.3023C40.3795 20.5273 40.3232 20.7522 40.3232 20.9209C40.4357 20.8085 40.6044 20.7522 40.7169 20.6397L40.9418 20.5273L40.9981 20.8085C41.0543 21.0897 40.9981 21.3708 40.9418 21.652L40.9981 21.5958C41.1668 21.4833 41.3918 21.3146 41.6167 21.2584L41.8417 21.1459V21.4271C41.7854 21.7083 41.7292 21.9332 41.6167 22.1582C41.673 22.1582 41.673 22.1582 41.673 22.102C41.8979 21.9895 42.1229 21.877 42.3478 21.7645L42.629 21.652V21.9895C42.5728 22.1582 42.5165 22.3269 42.4603 22.4956C42.629 22.3831 42.7977 22.3269 43.0227 22.2707L43.3039 22.2144L43.2477 22.4956C43.1914 22.6643 43.1352 22.7768 43.0789 22.9455C43.3039 22.8331 43.5288 22.7768 43.7538 22.7206L44.035 22.6643L43.9788 22.9455C43.9225 23.1705 43.8663 23.3392 43.7538 23.5079C44.035 23.3392 44.3162 23.2267 44.5974 23.1143L44.8786 23.0018L44.8223 23.283C44.7661 23.5642 44.7099 23.8454 44.5411 24.0703C44.9348 23.8454 45.3285 23.6766 45.6659 23.5642L46.0034 23.5079L45.8909 23.7891C45.7784 24.1266 45.6097 24.4078 45.441 24.6889C45.8909 24.4078 46.3408 24.239 46.8469 24.0703L47.1844 23.9578L47.0157 24.3515C46.9032 24.5765 46.7345 24.8577 46.5658 25.0826C46.6782 25.0264 46.7907 24.9701 46.9032 24.9139C47.2969 24.7452 47.7468 24.6327 48.1967 24.5202L48.4779 24.464L48.3654 24.7452C48.3092 25.0264 48.1967 25.2513 48.028 25.4763C48.8716 25.1951 49.7151 25.0264 50.615 25.0826H50.8962L50.7274 25.3638C50.5587 25.5888 50.3338 25.8137 50.1088 26.0387C50.5025 25.9262 50.9524 25.7575 51.3461 25.7013C52.5271 25.4201 53.7081 25.4763 54.8891 25.5888C55.6202 25.645 56.2951 25.645 57.0262 25.7013C56.5201 26.1512 55.9014 26.6011 55.339 27.051C54.383 27.7821 53.4831 28.5132 52.3584 28.9631C51.9647 29.1318 51.5148 29.3005 51.0649 29.413C51.4023 29.413 51.7397 29.5255 52.0772 29.638L52.3584 29.7505L52.1334 29.9192C51.4023 30.5378 50.5025 30.8752 49.5464 31.1564C49.6027 31.1564 49.7151 31.1564 49.7714 31.2127C50.1088 31.2689 50.39 31.3814 50.615 31.4376L50.9524 31.6063L50.5587 31.7751C49.9963 32 49.3777 32.1687 48.7028 32.2812C49.0965 32.3375 49.4902 32.4499 49.8276 32.6186L50.165 32.8436L49.7714 32.9561C49.209 33.1248 48.7591 33.2373 48.3092 33.2935C48.5904 33.3498 48.8716 33.5185 49.1527 33.6872L49.4339 33.9121L49.0965 33.9684C48.6466 34.0809 48.2529 34.1933 47.803 34.1933C48.0842 34.3058 48.3654 34.4183 48.5904 34.587L48.8716 34.812L48.5341 34.9244C48.1967 34.9807 47.8592 35.0369 47.5218 35.0369C47.803 35.2056 48.028 35.3744 48.1967 35.5993L48.3654 35.768L48.1404 35.8805C47.8592 35.9368 47.6343 35.9368 47.4093 35.9368C47.5781 36.0492 47.7468 36.2179 47.803 36.3304L47.8592 36.4991L47.6905 36.6116C47.5218 36.6679 47.2969 36.6679 47.1281 36.7241C47.2969 36.8366 47.4656 37.0053 47.6343 37.174L47.7468 37.3427L47.5218 37.4552C47.2969 37.5114 47.0719 37.5677 46.7907 37.5677C46.9594 37.6802 47.1281 37.8489 47.2406 38.0176L47.3531 38.1863L47.1281 38.2425C46.9032 38.355 46.6782 38.355 46.4533 38.4113C46.6782 38.58 46.9032 38.7487 47.0719 38.9737L47.1844 39.1986L46.9594 39.2549C46.6782 39.3111 46.397 39.3111 46.1158 39.3111C46.3408 39.4798 46.5095 39.6485 46.622 39.8735L46.6782 40.0984H46.4533C46.2846 40.1547 46.1721 40.1547 46.0034 40.1547C46.1158 40.2672 46.2283 40.3796 46.3408 40.4921L46.5095 40.7171L46.2283 40.7733C46.0034 40.8295 45.7784 40.8858 45.4972 40.8295H45.5534C45.7784 41.0545 45.9471 41.2795 46.0596 41.5606L46.2283 41.7856H45.9471C45.7222 41.7856 45.5534 41.8418 45.3285 41.7856C45.6097 42.0106 45.8346 42.1793 46.0034 42.4042L46.2283 42.6854H45.8909C45.6659 42.6854 45.3847 42.6854 45.1598 42.6292C45.441 42.8541 45.6659 43.1353 45.8909 43.4165L46.0596 43.6977H45.7222C45.441 43.6977 45.1598 43.6415 44.8223 43.5853C45.216 43.9227 45.5534 44.3164 45.8346 44.71L46.0596 45.0475L45.6659 44.9912C45.3285 44.935 45.0473 44.8225 44.7661 44.7663C44.8786 44.8787 44.9911 44.9912 45.0473 45.1037C45.441 45.6099 45.7222 46.116 46.0596 46.5659C45.441 46.4534 44.9348 46.2847 44.3724 46.0598C45.0473 46.8471 45.7784 47.8594 46.2846 48.8155C45.7784 48.703 45.4972 48.5343 45.0473 48.3093C45.3847 48.703 45.6659 49.0967 45.9471 49.4903C46.622 50.4464 46.9594 51.5712 47.2406 52.7522C47.5218 53.5958 47.7468 54.2707 48.0842 55.058C47.4093 54.4956 46.7907 54.1019 46.0596 53.652C45.0473 53.0896 44.035 52.471 43.2477 51.5712C42.9102 51.2338 42.629 50.8963 42.3478 50.5027C42.4603 50.8401 42.4603 51.1775 42.5165 51.515V51.8524L42.2353 51.6837C41.3918 51.1775 40.7169 50.4464 40.1545 49.6028C40.1545 49.6591 40.1545 49.7153 40.1545 49.7715C40.1545 50.0527 40.0983 50.3339 40.042 50.5589L39.9295 50.8963L39.7046 50.6714C39.2547 50.109 38.9172 49.4903 38.5798 48.8717C38.5236 48.8155 38.5236 48.8155 38.5236 48.8155C38.5798 49.3779 38.6361 49.9965 38.4673 50.6151C38.0174 50.1652 37.7925 49.7153 37.5113 49.1529C37.5113 49.4903 37.5113 49.7715 37.3988 50.0527L37.3426 50.4464L37.1176 50.109C36.8364 49.7715 36.6114 49.3779 36.4427 48.928C36.3865 49.2092 36.3303 49.4903 36.2178 49.7715L36.1053 50.0527L35.9366 49.7715C35.7116 49.4903 35.5429 49.1529 35.4304 48.8155C35.3742 49.0967 35.2617 49.3779 35.1492 49.6028L35.0368 49.884L34.868 49.6591C34.7556 49.4903 34.5868 49.2654 34.5306 49.0404C34.4744 49.2092 34.3619 49.4341 34.3056 49.6028L34.1369 49.884L33.9682 49.6028C33.912 49.4341 33.7995 49.2654 33.7433 49.0967C33.687 49.2654 33.6308 49.3779 33.5745 49.5466L33.4058 49.7715L33.2371 49.5466C33.1809 49.4341 33.0684 49.2654 32.9559 49.0967C32.8997 49.3216 32.8434 49.4903 32.731 49.6591L32.5622 49.884L32.4498 49.6591C32.3373 49.5466 32.2248 49.3779 32.1123 49.0967C32.0561 49.0404 32.0561 48.928 31.9998 48.8717C31.9436 49.1529 31.7749 49.3779 31.6062 49.5466L31.4937 49.6591L31.3812 49.5466C31.2125 49.3216 31.1563 49.1529 31.0438 48.928C30.9313 49.2092 30.8188 49.4341 30.7064 49.6591L30.4814 49.9403L30.3689 49.6591C30.3127 49.4341 30.2564 49.2654 30.2002 49.0404C30.0877 49.2092 29.9752 49.4341 29.8065 49.6028L29.5816 49.7715L29.5253 49.5466C29.4129 49.3779 29.4129 49.1529 29.3566 48.9842C29.1879 49.3216 29.0192 49.6028 28.7942 49.7715L28.5693 49.884L28.513 49.6591C28.4568 49.4341 28.4006 49.2092 28.4006 49.0404C28.2318 49.3779 28.0631 49.6591 27.8382 49.9403L27.557 50.2215L27.5007 49.884C27.4445 49.5466 27.4445 49.2654 27.4445 48.9842C27.4445 49.0404 27.3883 49.0404 27.3883 49.0967C27.1633 49.5466 26.8821 49.884 26.6009 50.109L26.3197 50.3339V49.9965C26.3197 49.7715 26.3197 49.5466 26.3759 49.3216C26.0948 49.8278 25.8698 50.1652 25.4761 50.5589C25.4199 50.2215 25.3636 49.9403 25.3636 49.6028C25.1387 49.9403 24.8575 50.2777 24.5201 50.6151L24.2389 50.8963V50.5027C24.2389 50.0527 24.2389 49.5466 24.3513 49.0404ZM26.3197 47.1846C26.2072 47.8032 25.9823 48.3093 25.8136 48.8155C25.7573 49.0404 25.7573 49.2654 25.7573 49.4903C25.7573 49.5466 25.7573 49.6028 25.7573 49.7153C25.926 49.4341 26.0948 49.0967 26.2072 48.8155C26.4322 48.3656 26.6009 47.9157 26.7696 47.4095L26.8259 47.3533C26.6571 47.297 26.4884 47.2408 26.3197 47.1846ZM39.7046 48.8717C39.3109 48.1969 38.9172 47.522 38.5798 46.7909C38.4111 46.8471 38.2986 46.9034 38.1299 46.9596C38.3549 47.5782 38.5798 48.1406 38.861 48.703C39.1422 49.2092 39.4234 49.6591 39.7608 50.109C39.7608 49.9965 39.7608 49.884 39.7608 49.7715C39.8171 49.4903 39.7608 49.2092 39.7046 48.8717ZM38.9172 46.6222C39.3672 47.5782 39.8733 48.5343 40.4357 49.3779C40.8856 50.109 41.448 50.7276 42.1229 51.2338C42.1229 50.8963 42.0104 50.6151 41.9542 50.3339C41.8417 49.884 41.673 49.4903 41.448 49.0967C41.223 48.703 40.9981 48.2531 40.7169 47.8594C40.3795 47.297 40.0983 46.6784 39.7046 46.116C39.4234 46.2847 39.1984 46.4534 38.9172 46.6222ZM27.1633 47.4657L27.1071 47.522C26.9946 47.9719 26.8821 48.3656 26.7696 48.7592C26.7134 49.0404 26.7134 49.3216 26.7134 49.5466C26.8259 49.3779 26.9383 49.2092 27.0508 48.928C27.2195 48.5905 27.3883 48.1406 27.557 47.6345C27.3883 47.5782 27.2758 47.522 27.1633 47.4657ZM27.8944 47.7469C27.8382 48.0844 27.7819 48.3656 27.7819 48.6468C27.7819 48.928 27.7819 49.1529 27.7819 49.3779C28.0631 48.9842 28.2318 48.478 28.4006 47.9157C28.4006 47.8594 28.4006 47.9157 28.4006 47.8594C28.2318 47.8032 28.0631 47.8032 27.8944 47.7469ZM28.738 47.9719C28.6817 48.1969 28.6817 48.4218 28.6817 48.703C28.738 48.8717 28.738 49.0967 28.7942 49.2654C28.8505 49.1529 28.9629 49.0404 29.0192 48.8717C29.1317 48.6468 29.2441 48.3656 29.3004 48.0844C29.1317 48.0281 28.9067 47.9719 28.738 47.9719ZM29.694 48.1406C29.6378 48.3656 29.6378 48.5343 29.694 48.703C29.694 48.8717 29.694 48.9842 29.7503 49.0967C29.8065 48.9842 29.919 48.8717 29.9752 48.703C30.0315 48.5343 30.0877 48.3656 30.144 48.1969C29.9752 48.1969 29.8065 48.1406 29.694 48.1406ZM30.4814 48.2531C30.4814 48.4218 30.4814 48.6468 30.5376 48.8155C30.5376 48.928 30.5376 49.0404 30.5939 49.1529C30.6501 49.0404 30.7064 48.928 30.7626 48.8155C30.8188 48.6468 30.8751 48.478 30.9313 48.3093C30.7626 48.2531 30.6501 48.2531 30.4814 48.2531ZM31.325 48.3093C31.325 48.478 31.3812 48.6468 31.3812 48.7592C31.4375 48.8717 31.4375 48.9842 31.4937 49.0967C31.6062 49.0404 31.6062 48.8717 31.6624 48.7592C31.7187 48.6468 31.7749 48.478 31.7749 48.3093C31.6624 48.3093 31.4937 48.3093 31.325 48.3093ZM32.2248 48.3093C32.281 48.5905 32.3373 48.8155 32.4498 48.9842C32.4498 49.0967 32.506 49.1529 32.5622 49.2654C32.6747 48.9842 32.731 48.6468 32.7872 48.3093C32.6185 48.3093 32.3935 48.3093 32.2248 48.3093ZM33.1246 48.2531C33.1809 48.5343 33.1809 48.703 33.2371 48.8717C33.2933 48.928 33.3496 49.0404 33.3496 49.0967C33.4058 48.9842 33.4621 48.8717 33.4621 48.703C33.5183 48.5343 33.5183 48.4218 33.5183 48.2531C33.4058 48.2531 33.2933 48.2531 33.1246 48.2531ZM33.912 48.1969C33.912 48.4218 33.9682 48.6468 34.0245 48.8155C34.0807 48.928 34.0807 48.9842 34.1369 49.0967C34.1932 48.9842 34.1932 48.8155 34.2494 48.703C34.3056 48.5343 34.3056 48.3656 34.3619 48.1969C34.3619 48.1406 34.3619 48.1406 34.3619 48.1406C34.1932 48.1406 34.0245 48.1969 33.912 48.1969ZM34.6993 48.0844C34.6993 48.0844 34.6993 48.1406 34.6993 48.1969C34.6993 48.3656 34.6993 48.5905 34.7556 48.7592C34.8118 48.8717 34.868 49.0404 34.9805 49.2092C35.0368 48.9842 35.093 48.8155 35.093 48.5905C35.1492 48.4218 35.2055 48.1969 35.2055 47.9719C35.0368 48.0281 34.868 48.0281 34.6993 48.0844ZM35.5991 47.8594C35.5991 48.1969 35.6554 48.4218 35.7679 48.703C35.8241 48.928 35.8803 49.0967 35.9928 49.2654C36.0491 49.0404 36.1053 48.8155 36.1053 48.5343C36.1615 48.3093 36.1615 48.0281 36.1053 47.8032V47.7469C35.9366 47.8032 35.7679 47.8594 35.5991 47.8594ZM36.4427 47.6345C36.4427 47.6907 36.4427 47.6907 36.4427 47.7469C36.499 48.0844 36.6114 48.4218 36.7239 48.7592C36.8364 49.0404 37.0051 49.3216 37.1738 49.5466C37.1738 49.3216 37.1738 49.0404 37.1738 48.7592C37.1176 48.3656 37.0614 47.9719 36.9489 47.5782C36.9489 47.522 36.9489 47.522 36.9489 47.4657C36.7802 47.522 36.6114 47.5782 36.4427 47.6345ZM37.2863 47.3533C37.2863 47.4095 37.2863 47.4095 37.2863 47.4657C37.3988 47.9719 37.5675 48.4218 37.7362 48.8155C37.9049 49.1529 38.0737 49.4341 38.2424 49.7153C38.2424 49.3216 38.1861 48.928 38.1299 48.5343C38.0737 48.0844 37.9612 47.5782 37.7925 47.1283C37.6237 47.1846 37.455 47.297 37.2863 47.3533ZM44.3162 47.5782C44.5974 47.6907 44.8223 47.8032 44.9911 47.9157C45.1598 47.9719 45.2723 48.0281 45.441 48.1406C44.8786 47.2408 44.26 46.3972 43.5288 45.6661C42.9665 45.3287 42.4041 44.935 41.8979 44.4851C41.7854 44.5976 41.6167 44.71 41.448 44.8225C41.9542 45.3287 42.4041 45.7223 42.9102 46.1722C43.4164 46.6222 43.8663 47.0721 44.3162 47.5782ZM39.9858 45.9473C40.3795 46.5097 40.7169 47.1283 41.0543 47.6907C41.7854 48.9842 42.5165 50.2777 43.4726 51.3462C44.26 52.1898 45.2723 52.7522 46.2283 53.3708C46.5658 53.5958 46.9594 53.7645 47.2969 53.9895C47.1844 53.5958 47.0719 53.2021 46.9594 52.8085C46.622 51.7399 46.2846 50.6151 45.6659 49.6591C44.8223 48.478 43.7538 47.4657 42.6853 46.4534C42.1791 46.0035 41.673 45.5536 41.223 45.0475C40.8294 45.3849 40.4357 45.6661 39.9858 45.9473ZM42.1791 44.2039C42.6853 44.6538 43.2477 45.0475 43.81 45.3849C44.26 45.6099 44.7661 45.8348 45.2723 46.0035C45.1035 45.7786 44.9911 45.5536 44.8223 45.3287C44.5411 45.0475 44.3162 44.71 44.035 44.4851L43.9788 44.4288C43.5288 44.2601 43.0789 43.9789 42.6853 43.6977C42.5728 43.8102 42.4603 43.9227 42.3478 44.0352C42.2916 44.0914 42.2353 44.1476 42.1791 44.2039ZM42.9102 43.4728C43.3039 43.6977 43.6976 43.9227 44.1475 44.1476C44.4849 44.3164 44.8786 44.4288 45.2723 44.5413C45.0473 44.2601 44.8223 43.9789 44.5411 43.754C44.2037 43.4165 43.81 43.1353 43.4164 42.8541C43.2477 43.0791 43.0789 43.2478 42.9102 43.4728ZM43.6413 42.573C43.9225 42.7979 44.26 42.9666 44.5411 43.0791C44.8223 43.1916 45.1035 43.3041 45.3847 43.3041C45.1598 43.1353 44.9911 42.9104 44.7661 42.7417C44.5411 42.573 44.2037 42.348 43.9225 42.1793C43.81 42.2918 43.6976 42.4605 43.6413 42.573ZM44.0912 41.8981C44.3724 42.0106 44.6536 42.123 44.8786 42.1793C45.1035 42.2355 45.2723 42.2918 45.441 42.2918C45.3285 42.2355 45.216 42.123 45.0473 42.0106C44.8223 41.8981 44.5974 41.7294 44.3162 41.6169C44.26 41.7294 44.2037 41.7856 44.0912 41.8981ZM44.4849 41.2795C44.7099 41.3357 44.8786 41.3919 45.0473 41.4482C45.2723 41.4482 45.441 41.4482 45.6097 41.4482C45.5534 41.3357 45.441 41.2232 45.2723 41.1107C45.1598 40.9983 44.9911 40.8295 44.8223 40.7171C44.7099 40.942 44.5974 41.1107 44.4849 41.2795ZM44.9911 40.3796C45.1598 40.4359 45.3285 40.4359 45.4972 40.4921C45.6097 40.4921 45.7222 40.4921 45.8346 40.4921C45.7784 40.4359 45.6659 40.3796 45.6097 40.3234C45.441 40.2109 45.3285 40.1547 45.1598 40.0984C45.1035 40.1547 45.0473 40.2672 44.9911 40.3796ZM45.3285 39.7048C45.4972 39.761 45.6097 39.761 45.7784 39.761C45.8909 39.8172 46.0034 39.8172 46.1158 39.8172C46.0596 39.7048 46.0034 39.6485 45.8909 39.5923C45.7784 39.4798 45.6659 39.4236 45.4972 39.3111C45.441 39.4798 45.3847 39.5923 45.3285 39.7048ZM45.6659 38.9174C45.7784 38.9737 45.9471 38.9737 46.1158 38.9737C46.2846 38.9737 46.397 38.9737 46.5658 38.9737C46.5095 38.8612 46.397 38.7487 46.2846 38.6925C46.1158 38.58 46.0034 38.5237 45.8346 38.4113C45.7784 38.58 45.7222 38.7487 45.6659 38.9174ZM45.9471 38.0176C46.1158 38.0738 46.2846 38.0738 46.397 38.0738C46.5095 38.0176 46.6782 38.0176 46.7907 38.0176C46.6782 37.9051 46.622 37.8489 46.5095 37.7926C46.397 37.7364 46.2283 37.6802 46.1158 37.5677C46.0596 37.7364 46.0034 37.9051 45.9471 38.0176ZM46.1721 37.174C46.397 37.2302 46.5658 37.2302 46.7345 37.2302C46.9032 37.2302 47.0157 37.2302 47.1844 37.174C47.0719 37.1178 46.9594 37.0053 46.7907 36.9491C46.6782 36.8928 46.5095 36.7803 46.2846 36.7241C46.2846 36.8928 46.2283 37.0615 46.1721 37.174ZM46.397 36.3304C46.5658 36.3867 46.7345 36.3867 46.9032 36.3867C47.0719 36.3867 47.1844 36.3304 47.3531 36.3304C47.2406 36.2742 47.1844 36.2179 47.0719 36.1617C46.9032 36.0492 46.6782 35.993 46.4533 35.9368C46.397 36.0492 46.397 36.2179 46.397 36.3304ZM46.5095 35.5431C46.7345 35.5993 46.9594 35.5993 47.1844 35.5993C47.3531 35.5993 47.5218 35.5993 47.7468 35.5993C47.5781 35.4868 47.4093 35.3744 47.2406 35.3181C47.0157 35.2056 46.7907 35.1494 46.5658 35.0932C46.5095 35.2619 46.5095 35.3744 46.5095 35.5431ZM46.5658 34.6995C46.8469 34.6995 47.1281 34.7557 47.4093 34.6995C47.5781 34.6995 47.803 34.6995 48.028 34.6433C47.8592 34.587 47.6343 34.5308 47.4656 34.4745C47.1844 34.3621 46.9032 34.3058 46.622 34.2496C46.5658 34.4183 46.5658 34.587 46.5658 34.6995ZM46.622 33.9121C46.9594 33.9121 47.2969 33.9121 47.6905 33.8559C47.9717 33.8559 48.2529 33.7997 48.5904 33.7434C47.9717 33.4622 47.2969 33.406 46.622 33.406C46.622 33.5185 46.622 33.631 46.622 33.7434C46.622 33.7997 46.622 33.8559 46.622 33.9121ZM46.5658 33.0686L46.6782 33.0123C47.4656 33.0123 48.1967 33.0123 49.209 32.7311C48.9278 32.6186 48.5341 32.5624 48.1967 32.5624C47.6905 32.5062 47.1281 32.5062 46.5658 32.5062C46.5658 32.6749 46.5658 32.8436 46.5658 33.0686ZM46.5095 32.1125C46.6782 32.1125 46.7907 32.1125 46.9032 32.1125C47.9717 32 49.0403 31.9438 49.9963 31.6063C49.8839 31.6063 49.8276 31.5501 49.7151 31.5501C49.4339 31.4376 49.0403 31.3814 48.7028 31.3252C47.9717 31.4376 47.2406 31.5501 46.4533 31.6063C46.4533 31.7751 46.5095 31.9438 46.5095 32.1125ZM46.397 31.2689C47.4093 31.1564 48.4216 31.044 49.3215 30.819C50.165 30.594 50.9524 30.3128 51.6273 29.8629C51.3461 29.8067 51.0649 29.7505 50.7274 29.6942C50.3338 29.6942 49.8839 29.6942 49.4339 29.7505C48.9278 29.8629 48.4779 29.9192 48.028 29.9754C47.4093 30.0879 46.7907 30.2004 46.2283 30.3128C46.2846 30.594 46.3408 30.9315 46.397 31.2689ZM45.4972 28.1758C46.1158 27.9508 46.622 27.6696 47.1844 27.3884C47.6343 27.1635 48.028 26.9385 48.4779 26.7698C48.8716 26.5448 49.2652 26.3199 49.6027 26.0387C49.8276 25.87 50.0526 25.645 50.2213 25.4201C49.4339 25.4201 48.5904 25.5888 47.803 25.9262C46.9032 26.2636 46.0034 26.7698 45.1035 27.2759C45.2723 27.5571 45.3847 27.8946 45.4972 28.1758ZM46.1158 29.9754C46.7345 29.8629 47.3531 29.7505 47.9717 29.638C49.4339 29.413 50.8962 29.1881 52.2459 28.6257C53.3144 28.232 54.2143 27.5009 55.1141 26.7698C55.4515 26.4886 55.7327 26.2636 56.0701 26.0387C55.6765 25.9824 55.2266 25.9824 54.8329 25.9262C53.7081 25.87 52.5271 25.7575 51.4585 26.0387C49.9963 26.3199 48.7028 26.9947 47.3531 27.6696C46.7907 27.9508 46.2283 28.2882 45.6659 28.5132C45.8346 29.0194 46.0034 29.4693 46.1158 29.9754ZM44.9348 26.9385C45.7222 26.5448 46.4533 26.0949 47.2406 25.8137C47.4093 25.645 47.5781 25.4763 47.7468 25.2513C47.803 25.1951 47.8592 25.0826 47.9155 24.9701C47.6343 25.0264 47.3531 25.1389 47.0719 25.2513C46.6782 25.4201 46.2846 25.645 45.9471 25.87C45.6097 26.2074 45.216 26.4886 44.8786 26.826C44.8786 26.826 44.9348 26.8823 44.9348 26.9385ZM35.093 19.4587C35.2055 19.065 35.2617 18.7276 35.3742 18.3339C35.3742 17.884 35.4304 17.3779 35.4304 16.8717C35.4304 16.5343 35.3742 16.1969 35.3742 15.8594C35.3179 15.9157 35.2617 15.9719 35.2055 16.0844C35.093 16.3093 34.9805 16.5343 34.868 16.7592C34.8118 17.6028 34.6431 18.4464 34.4744 19.3462C34.6993 19.4025 34.868 19.4025 35.093 19.4587ZM44.7099 26.4886C45.1035 26.1512 45.441 25.87 45.7784 25.5325C46.0596 25.1951 46.3408 24.9139 46.5095 24.5765C46.1721 24.6889 45.8346 24.8577 45.4972 25.0264C45.1035 25.2513 44.7099 25.5325 44.3162 25.8137C44.4287 26.0387 44.5411 26.2636 44.7099 26.4886ZM44.0912 25.5325L44.1475 25.4763C44.6536 25.0264 45.1598 24.5202 45.441 24.0141C45.216 24.1266 44.9348 24.239 44.7099 24.3515C44.3724 24.5202 44.035 24.8014 43.6976 25.0264C43.8663 25.1951 43.9788 25.3638 44.0912 25.5325ZM43.5288 24.7452C43.8663 24.4078 44.2037 24.0703 44.3724 23.5642C44.2037 23.6766 44.035 23.7891 43.81 23.9016C43.6413 24.0703 43.4164 24.1828 43.1914 24.4078C43.3039 24.5202 43.4164 24.6327 43.5288 24.7452ZM42.9665 24.1266C43.1352 23.9578 43.2477 23.7891 43.3601 23.6204C43.4164 23.4517 43.5288 23.3392 43.5851 23.1143C43.4164 23.1705 43.2477 23.283 43.0789 23.3392C42.9102 23.4517 42.7977 23.5642 42.629 23.7329C42.7415 23.8454 42.854 23.9578 42.9665 24.1266ZM42.3478 23.4517C42.4603 23.3392 42.5728 23.1705 42.629 23.058C42.7415 22.9455 42.7977 22.8331 42.7977 22.7206C42.6853 22.7206 42.5728 22.8331 42.4603 22.8893C42.3478 22.9455 42.2353 23.058 42.1229 23.1705C42.1791 23.283 42.2353 23.3392 42.3478 23.3955C42.3478 23.4517 42.3478 23.4517 42.3478 23.4517ZM41.8417 22.9455C41.9542 22.7206 42.0666 22.4956 42.1791 22.2707C42.0666 22.3269 41.9542 22.3831 41.8979 22.4394C41.7292 22.4956 41.6167 22.6081 41.5042 22.6643C41.6167 22.7768 41.7292 22.8331 41.8417 22.9455ZM41.1668 22.3831C41.2793 22.1582 41.3355 21.9332 41.3918 21.7645C41.3355 21.7645 41.2793 21.8208 41.223 21.877C41.1106 21.9332 40.9981 22.0457 40.8856 22.1582C40.9981 22.2144 41.0543 22.2707 41.1668 22.3831ZM40.4919 21.877C40.5482 21.5958 40.6607 21.3708 40.6607 21.0897C40.5482 21.1459 40.4919 21.2584 40.3795 21.3146C40.267 21.4271 40.2107 21.4833 40.1545 21.5958C40.267 21.7083 40.3795 21.7645 40.4919 21.877ZM39.8171 21.3708C39.8733 21.2584 39.8733 21.1459 39.9295 20.9772C39.9858 20.8647 39.9858 20.7522 39.9858 20.6397C39.8733 20.696 39.8171 20.8085 39.7046 20.8647C39.6484 20.9772 39.5921 21.0897 39.4796 21.2021C39.5921 21.2584 39.7046 21.3146 39.8171 21.3708ZM39.1422 21.0334C39.2547 20.7522 39.3672 20.4148 39.3672 20.0774C39.2547 20.1336 39.1422 20.2461 39.086 20.3585C38.9172 20.471 38.8048 20.5835 38.6923 20.7522C38.861 20.8085 39.0297 20.9209 39.1422 21.0334ZM38.3549 20.5835C38.4111 20.4148 38.4673 20.1898 38.5236 20.0211C38.5236 19.8524 38.5798 19.6837 38.5798 19.515C38.4673 19.5712 38.3549 19.6837 38.2986 19.8524C38.1299 20.0211 38.0174 20.1898 37.9049 20.4148C38.0737 20.471 38.1861 20.5273 38.3549 20.5835ZM37.5675 20.2461C37.7362 19.8524 37.9049 19.4587 37.9612 19.0088C37.7925 19.1775 37.68 19.29 37.5675 19.4587C37.3988 19.6837 37.2863 19.8524 37.1738 20.0774C37.3426 20.1336 37.455 20.1898 37.5675 20.2461ZM36.7802 19.9649C36.8926 19.6274 36.9489 19.2338 37.0051 18.8963C37.0614 18.6151 37.0614 18.3339 37.0614 18.0527C36.8364 18.3339 36.7239 18.5589 36.6114 18.8401C36.499 19.065 36.4427 19.29 36.3865 19.4587C36.3865 19.5712 36.3303 19.6837 36.3303 19.7962C36.499 19.8524 36.6677 19.9086 36.7802 19.9649ZM35.9928 19.6837C35.9928 19.5712 36.0491 19.515 36.0491 19.4025C36.1615 19.0088 36.2178 18.6151 36.274 18.2777C36.3303 17.884 36.3303 17.4904 36.3303 17.1529C36.1615 17.4341 35.9928 17.7153 35.8241 18.109C35.6554 18.5589 35.5429 19.065 35.4304 19.5712C35.6554 19.5712 35.8241 19.6274 35.9928 19.6837ZM34.0807 19.29C34.3056 18.2215 34.5306 17.2092 34.5868 16.2531C34.6431 15.3533 34.5868 14.5097 34.3619 13.7223C34.1932 14.0035 34.0807 14.2847 33.9682 14.5659C33.7995 14.9596 33.687 15.3533 33.6308 15.8594C33.5745 16.3093 33.4621 16.7592 33.4058 17.2092C33.2933 17.884 33.2371 18.5589 33.1809 19.1775C33.4621 19.2338 33.7995 19.2338 34.0807 19.29ZM30.9875 19.1775C30.8751 18.5589 30.7626 17.884 30.6501 17.2092C30.5939 16.7592 30.5376 16.3093 30.4252 15.8594C30.3689 15.3533 30.2564 14.9596 30.0877 14.5659C29.9752 14.2847 29.8628 14.0035 29.694 13.7223C29.4691 14.5097 29.4129 15.3533 29.4691 16.2531C29.5253 17.2092 29.7503 18.2215 29.9752 19.29C30.3127 19.2338 30.6501 19.1775 30.9875 19.1775ZM32.7872 19.1775C32.8997 18.5027 32.9559 17.8278 33.0684 17.1529C33.2933 15.6907 33.5183 14.2285 33.3496 12.7663C33.2933 11.6415 32.8434 10.573 32.4498 9.50442C32.281 9.11074 32.1686 8.77331 31.9998 8.37964C31.8874 8.77331 31.7187 9.11074 31.5499 9.50442C31.1563 10.573 30.7064 11.6415 30.6501 12.7663C30.5376 14.2285 30.7626 15.6907 31.0438 17.1529C31.1 17.8278 31.2125 18.5027 31.325 19.1775C31.5499 19.1213 31.7749 19.1213 31.9998 19.1213C32.281 19.1213 32.5622 19.1775 32.7872 19.1775ZM29.3566 17.9965C29.2441 17.4904 29.0754 16.9842 28.9067 16.5905C28.7942 16.2531 28.6255 16.0281 28.4568 15.8032C28.4006 16.1406 28.3443 16.4781 28.3443 16.8717C28.2881 17.3216 28.3443 17.7716 28.3443 18.2215C28.5693 18.6151 28.6817 19.065 28.7942 19.515C29.0754 19.4587 29.3566 19.4025 29.6378 19.3462C29.5253 18.8963 29.4129 18.4464 29.3566 17.9965ZM28.4568 19.5712C28.3443 19.1775 28.2318 18.7276 28.0069 18.3339C27.8944 17.9965 27.6694 17.7153 27.3883 17.4341C27.3883 17.8278 27.4445 18.2215 27.5007 18.6151C27.6132 19.0088 27.7257 19.4025 27.8944 19.7399C28.0631 19.6837 28.2881 19.6274 28.4568 19.5712ZM27.557 19.8524C27.3883 19.5712 27.2195 19.29 27.0508 19.065C26.8821 18.8401 26.6571 18.6714 26.4884 18.5027C26.4884 18.7839 26.5447 19.0088 26.6009 19.29C26.6571 19.5712 26.7696 19.7962 26.8821 20.0774C27.1071 19.9649 27.332 19.9086 27.557 19.8524ZM26.5447 20.1898H26.4884C26.3197 19.8524 26.0948 19.5712 25.8136 19.29C25.8136 19.4587 25.8136 19.5712 25.8698 19.7399C25.926 19.9649 25.9823 20.1898 26.0948 20.4148C26.2072 20.3585 26.3759 20.2461 26.5447 20.1898ZM25.7573 20.5835C25.6448 20.4148 25.5324 20.2461 25.4199 20.1336C25.3074 20.0211 25.1949 19.8524 25.0825 19.7962C25.0825 19.9649 25.0825 20.1336 25.1387 20.2461C25.1949 20.4148 25.2512 20.5835 25.3636 20.7522C25.4761 20.696 25.5886 20.6397 25.7573 20.5835ZM25.0262 20.9209C24.9137 20.696 24.745 20.5273 24.5201 20.3585C24.5763 20.471 24.5763 20.5835 24.6325 20.696C24.6325 20.8085 24.6888 20.9772 24.745 21.0897C24.8575 21.0334 24.9137 20.9772 25.0262 20.9209ZM24.4076 21.3146C24.2389 21.0897 24.0701 20.9209 23.9014 20.8085C23.9577 21.0897 24.0139 21.2584 24.1264 21.4271C24.2389 21.3708 24.2951 21.3146 24.4076 21.3146ZM23.8452 21.652C23.6202 21.4271 23.4515 21.2021 23.2266 21.0334C23.2266 21.2021 23.2266 21.3146 23.2828 21.4271C23.339 21.5396 23.4515 21.7083 23.564 21.877C23.6202 21.7645 23.7327 21.7083 23.8452 21.652ZM23.2266 22.102C23.1141 21.9895 23.0016 21.9332 22.8891 21.8208C22.8329 21.7645 22.7767 21.7083 22.7204 21.7083C22.7767 21.7645 22.7767 21.877 22.7767 21.9895C22.8329 22.102 22.8891 22.2144 22.9454 22.3269C23.0016 22.2707 23.1141 22.1582 23.2266 22.102ZM22.6079 22.6081C22.4955 22.4956 22.383 22.4394 22.2705 22.3269C22.158 22.2707 22.0455 22.2144 21.9331 22.1582C21.9893 22.2707 22.0455 22.3831 22.1018 22.4956C22.158 22.6081 22.2705 22.7206 22.3267 22.8331C22.4392 22.7768 22.4955 22.6643 22.6079 22.6081ZM22.0455 23.1143C21.9331 23.0018 21.7643 22.8893 21.6519 22.8331C21.5394 22.7768 21.4269 22.7206 21.3144 22.6643C21.3707 22.7768 21.4269 22.8893 21.4832 23.0018C21.5394 23.1705 21.6519 23.283 21.7081 23.3955C21.8206 23.283 21.9331 23.1705 22.0455 23.1143ZM21.4832 23.6766C21.3144 23.5079 21.1457 23.3955 20.977 23.283C20.8645 23.2267 20.752 23.1705 20.6396 23.1143C20.6958 23.283 20.752 23.3955 20.8645 23.5642C20.977 23.7329 21.0895 23.8454 21.202 23.9578C21.2582 23.8454 21.3707 23.7891 21.4832 23.6766ZM20.9208 24.239C20.752 24.0703 20.5271 23.9578 20.3021 23.8454C20.1334 23.7329 19.9647 23.6204 19.7397 23.5642C19.8522 23.7329 19.9647 23.9016 20.0772 24.0141C20.2459 24.239 20.4146 24.4078 20.6396 24.6327C20.752 24.5202 20.8083 24.3515 20.9208 24.239ZM20.4146 24.9139C20.0772 24.6889 19.796 24.5202 19.5148 24.3515C19.2898 24.1828 19.0649 24.0703 18.8399 24.0141C19.0086 24.239 19.1774 24.464 19.3461 24.6889C19.571 24.9139 19.796 25.1389 20.0772 25.3638C20.1897 25.2513 20.3021 25.0826 20.4146 24.9139ZM19.8522 25.7013L19.796 25.645C19.0649 25.2513 18.3338 24.8014 17.6027 24.5202C17.6589 24.5765 17.7151 24.6889 17.8276 24.8014C17.9963 25.0264 18.1651 25.2513 18.4462 25.4763C18.8399 25.645 19.1774 25.87 19.571 26.1512C19.6273 25.9824 19.7397 25.8137 19.8522 25.7013ZM19.4023 26.4324C18.8962 26.0949 18.3338 25.8137 17.8276 25.5325C17.3215 25.3076 16.7591 25.0826 16.1967 24.9701C16.3092 25.0264 16.3654 25.1389 16.4216 25.1951C16.5904 25.4201 16.7591 25.5888 16.9278 25.8137C17.6589 26.0949 18.39 26.4886 19.1211 26.9385C19.2336 26.7698 19.2898 26.6011 19.4023 26.4324ZM18.9524 27.2197C17.9963 26.7136 17.0965 26.2074 16.1967 25.87C15.3531 25.5325 14.5658 25.3076 13.7222 25.3076C13.9471 25.5325 14.1721 25.7575 14.397 25.9262C14.7345 26.2074 15.0719 26.4324 15.5218 26.6573C15.9155 26.8823 16.3654 27.051 16.7591 27.2759C17.3777 27.6134 17.9401 27.8946 18.5587 28.1758C18.6712 27.8383 18.7837 27.5009 18.9524 27.2197ZM14.5658 29.6942C14.1158 29.638 13.6659 29.5817 13.2723 29.638C12.9348 29.638 12.6536 29.6942 12.3162 29.7505C12.9911 30.2566 13.7784 30.5378 14.6782 30.7628C15.5781 30.9315 16.5904 31.044 17.6589 31.1564C17.7151 30.8752 17.7714 30.5378 17.8839 30.2566C17.209 30.0879 16.5904 29.9754 15.9717 29.9192C15.4656 29.8067 15.0157 29.7505 14.5658 29.6942ZM17.6027 31.4939C16.5904 31.4376 15.6905 31.3252 14.7907 31.1002C14.622 31.1002 14.397 31.1564 14.2283 31.2127C14.1158 31.2127 14.0596 31.2689 14.0034 31.2689C15.0157 31.6626 15.8593 31.6626 16.7591 31.6626C17.0403 31.6626 17.3215 31.6626 17.6027 31.6626C17.6027 31.6063 17.6027 31.5501 17.6027 31.4939ZM18.39 28.457C17.8276 28.1758 17.209 27.8946 16.5904 27.6134C15.2969 26.9385 13.9471 26.2636 12.5412 25.9262C11.4164 25.645 10.2916 25.7575 9.11057 25.87C8.7169 25.87 8.32323 25.9262 7.92955 25.9262C8.21075 26.1512 8.54818 26.4324 8.88562 26.6573C9.78544 27.3884 10.6853 28.1195 11.6976 28.5694C13.1035 29.0756 14.5658 29.3005 16.028 29.5817C16.6466 29.638 17.3215 29.7505 17.9401 29.9192C18.0526 29.413 18.2213 28.9631 18.39 28.457ZM17.4339 32.9561C17.0403 33.0123 16.6466 33.0123 16.2529 32.9561C16.028 33.0123 15.8593 33.0686 15.6343 33.1248C15.5781 33.181 15.5218 33.181 15.4093 33.2373C15.7468 33.3498 16.0842 33.406 16.4216 33.4622C16.7591 33.5185 17.0965 33.5747 17.4339 33.5747C17.4339 33.3498 17.4339 33.1248 17.4339 32.9561ZM17.5464 32.0563C17.0403 32.0563 16.5341 32.0563 16.028 32.1125C15.6343 32.1687 15.2406 32.225 14.847 32.3375C15.2406 32.5062 15.6343 32.5624 16.028 32.6186C16.5341 32.6749 16.984 32.6186 17.4902 32.6186C17.4902 32.3937 17.4902 32.225 17.5464 32.0563ZM20.1897 47.1846C20.5271 46.8471 20.8645 46.5097 21.202 46.1722C21.7081 45.7786 22.158 45.3287 22.6079 44.8787C22.3267 44.6538 22.1018 44.4288 21.8206 44.2039C21.0332 44.8787 20.3021 45.5536 19.6835 46.2285C19.0649 46.9034 18.615 47.5782 18.3338 48.3093C18.615 48.2531 18.8962 48.0844 19.1211 47.9719C19.5148 47.7469 19.8522 47.4657 20.1897 47.1846ZM21.5956 43.9227C21.4832 43.8102 21.3144 43.6977 21.202 43.529C20.6396 43.9789 20.1897 44.4288 19.6835 44.8787C19.2898 45.3287 18.8962 45.7786 18.5587 46.2285C18.6712 46.2285 18.7837 46.1722 18.8399 46.1722C19.1211 46.0598 19.3461 46.0035 19.571 45.8348C20.1897 45.1599 20.8645 44.5413 21.5956 43.9227ZM20.977 43.2478C20.9208 43.1916 20.8083 43.0791 20.752 42.9666C20.6396 43.0791 20.5271 43.1353 20.4146 43.1916C20.0772 43.4728 19.796 43.6977 19.5148 43.9789C19.2336 44.3164 18.9524 44.5976 18.7274 44.935C18.7837 44.935 18.8962 44.8787 18.9524 44.8787C19.1211 44.8225 19.3461 44.7663 19.5148 44.5976C19.9647 44.1476 20.4709 43.6977 20.977 43.2478ZM20.5271 42.6854C20.4146 42.573 20.3021 42.4042 20.1897 42.2355C19.8522 42.4605 19.571 42.6854 19.3461 42.9666C19.1211 43.1353 18.8962 43.3603 18.7837 43.5853C19.0086 43.529 19.2898 43.4165 19.571 43.3041C19.796 43.1916 20.0209 43.0791 20.1897 42.9104C20.3021 42.8541 20.4146 42.7417 20.5271 42.6854ZM19.9647 41.9543C19.8522 41.7856 19.7397 41.6731 19.6835 41.5044C19.6273 41.5044 19.571 41.5606 19.5148 41.5606C19.3461 41.7294 19.1211 41.8981 18.9524 42.0668C18.7837 42.2355 18.615 42.4042 18.5025 42.573C18.7274 42.573 18.9524 42.5167 19.1774 42.4042C19.4586 42.2918 19.6835 42.123 19.9647 41.9543ZM19.4586 41.167C19.4023 41.0545 19.3461 40.942 19.2898 40.8295C19.0649 40.942 18.8962 41.0545 18.7274 41.2232C18.615 41.3357 18.5025 41.4482 18.39 41.6169C18.5587 41.5606 18.7274 41.5606 18.8962 41.5044C19.0086 41.4482 19.1774 41.3357 19.3461 41.2795C19.4023 41.2232 19.4586 41.2232 19.4586 41.167ZM19.0649 40.4921C19.0086 40.3234 18.8962 40.0984 18.7837 39.9297C18.615 40.0422 18.5025 40.1547 18.3338 40.2672C18.2213 40.3796 18.1651 40.4921 18.0526 40.6608C18.2213 40.6608 18.4462 40.6046 18.615 40.6046C18.7837 40.5483 18.9524 40.5483 19.0649 40.4921ZM18.615 39.536C18.5587 39.4236 18.5025 39.3111 18.4462 39.1424C18.3338 39.1986 18.2213 39.3111 18.1088 39.4236C17.9963 39.4798 17.9401 39.536 17.8839 39.6485C17.9963 39.6485 18.1088 39.6485 18.2213 39.6485C18.39 39.5923 18.5025 39.5923 18.615 39.536ZM18.3338 38.8049C18.2775 38.6362 18.2213 38.4675 18.1651 38.2988C18.0526 38.355 17.9401 38.4113 17.8839 38.4675C17.7714 38.58 17.6589 38.6362 17.5464 38.7487C17.7151 38.8049 17.8276 38.8049 17.9401 38.8612C18.1088 38.8612 18.2213 38.8049 18.3338 38.8049ZM18.0526 37.9051C17.9963 37.7364 17.9401 37.5677 17.8839 37.4552C17.7714 37.5114 17.6589 37.5677 17.6027 37.6239C17.4902 37.6802 17.3777 37.7364 17.3215 37.8489C17.4339 37.8489 17.5464 37.9051 17.7151 37.9051C17.8276 37.9051 17.9401 37.9051 18.0526 37.9051ZM17.8276 37.0615C17.7714 36.9491 17.7714 36.7803 17.7151 36.6116C17.6027 36.6679 17.4339 36.7803 17.3215 36.8366C17.209 36.8928 17.0965 36.9491 17.0403 37.0615C17.1528 37.0615 17.2652 37.1178 17.3777 37.1178C17.5464 37.1178 17.6589 37.1178 17.8276 37.0615ZM17.6589 36.2179C17.6027 36.1055 17.6027 35.9368 17.6027 35.8243C17.4339 35.8805 17.2652 35.9368 17.1528 35.993C17.0403 36.1055 16.9278 36.1617 16.8153 36.2179C16.984 36.2742 17.0965 36.2742 17.209 36.2742C17.3777 36.2742 17.4902 36.2742 17.6589 36.2179ZM17.5464 35.3744C17.4902 35.2056 17.4902 35.0369 17.4902 34.8682C17.2652 34.9244 17.0965 34.9807 16.9278 35.0932C16.8153 35.1494 16.6466 35.2056 16.5341 35.2619C16.7028 35.2619 16.8153 35.3181 16.984 35.3181C17.1528 35.3744 17.3215 35.3744 17.5464 35.3744ZM17.4339 34.4745C17.4339 34.3058 17.4339 34.1371 17.4339 33.9684C17.1528 33.9684 16.9278 34.0246 16.6466 34.0809C16.4216 34.1371 16.2529 34.1933 16.028 34.2496C16.2529 34.3621 16.4779 34.3621 16.6466 34.4183C16.9278 34.4745 17.209 34.4745 17.4339 34.4745ZM42.0104 23.7891C39.4234 21.2021 35.9366 19.6274 31.9998 19.6274C28.1194 19.6274 24.5763 21.2021 22.0455 23.7891C19.5148 26.3199 17.9401 29.8629 17.9401 33.7434C17.9401 37.6239 19.5148 41.167 22.0455 43.6977C24.5763 46.2285 28.1194 47.8032 31.9998 47.8032C35.9366 47.8032 39.4234 46.2285 42.0104 43.6977C44.5411 41.167 46.1158 37.6239 46.1158 33.7434C46.1158 29.8629 44.5411 26.3199 42.0104 23.7891Z" fill="white"/>
<path fill-rule="evenodd" clip-rule="evenodd" d="M32 22.6643C38.13 22.6643 43.0791 27.6133 43.0791 33.7434C43.0791 39.8172 38.13 44.8225 32 44.8225C25.9262 44.8225 20.9209 39.8172 20.9209 33.7434C20.9209 27.6133 25.9262 22.6643 32 22.6643ZM32 27.5009C35.4868 27.5009 38.2988 30.3128 38.2988 33.7434C38.2988 37.174 35.4868 39.9859 32 39.9859C28.5694 39.9859 25.7575 37.174 25.7575 33.7434C25.7575 30.3128 28.5694 27.5009 32 27.5009ZM32.5624 23.7891L32.6749 23.6766L32.8998 23.5641L33.0685 23.5079L33.2935 23.4517H33.5747H33.7996H34.0808L34.362 23.5079L34.6432 23.5641L34.9244 23.6204L35.2056 23.7328L35.4868 23.8453L35.7118 23.9578L35.993 24.1265L36.2179 24.239L36.4429 24.4077L36.6678 24.5764L36.8928 24.7452L37.0053 24.9139L37.174 25.1388L37.2865 25.3075L37.3427 25.4763L37.3989 25.645L37.4552 25.8137L37.3989 25.9824L37.3427 26.1511L37.2865 26.3198L35.9367 28.1195L35.8242 28.0633L35.7118 28.007L35.5993 27.8945L35.3743 27.7258L35.0931 27.6133L34.8119 27.5009C34.6432 27.3884 34.4745 27.3321 34.362 27.2759C34.1933 27.2197 34.0246 27.1634 33.9121 27.1634C33.7434 27.1072 33.5747 27.051 33.4622 26.9947L33.1248 26.9385C33.0123 26.9385 32.8998 26.8822 32.7311 26.8822H32.5061H32.3937H32.3374H32.2249H32.1687L32.1125 24.8014L32.1687 24.5202L32.2249 24.2952L32.2812 24.0703L32.3937 23.9016L32.5624 23.7891ZM38.2988 25.9824H38.4675L38.6924 26.0386L38.9174 26.0949L39.0861 26.1511L39.3111 26.3198L39.536 26.4323L39.7047 26.601L39.9297 26.826L40.0984 27.051L40.2671 27.2759L40.4358 27.5009L40.6046 27.7821L40.7733 28.007L40.8857 28.2882L40.9982 28.5694L41.1107 28.7944L41.1669 29.0756L41.2232 29.3005V29.5817L41.2794 29.8067L41.2232 29.9754V30.2003L41.1669 30.3691L41.0545 30.4815L40.942 30.6502L40.7733 30.7065L40.6046 30.819L38.4675 31.4938V31.3814L38.4112 31.2689L38.2988 30.9877L38.1863 30.7065L38.0176 30.4253L37.8488 30.1441C37.7926 30.0316 37.6801 29.8629 37.5676 29.7504C37.5114 29.6379 37.3989 29.4692 37.2865 29.3567C37.2302 29.2443 37.1177 29.1318 37.0053 29.0193L36.8365 28.7944L36.6678 28.6256C36.4991 28.5132 36.3304 28.3444 36.1617 28.2882L37.3427 26.601L37.5114 26.3761L37.7364 26.2074L37.9051 26.0949L38.0738 26.0386L38.2988 25.9824ZM41.6731 31.1564L41.7856 31.2689L41.9543 31.4376L42.0668 31.6063L42.1792 31.775L42.2917 32L42.348 32.2812L42.4042 32.5061L42.4604 32.7873L42.5167 33.0685V33.3497V33.6309L42.4604 33.9683V34.2495L42.4042 34.5307L42.348 34.8119L42.2355 35.0931L42.1792 35.3181L42.0668 35.543L41.9543 35.768L41.7856 35.993L41.6731 36.1054L41.5044 36.2741L41.3919 36.3866L41.2232 36.4429H41.0545H40.8857H40.717L38.5237 35.7118L38.58 35.5993L38.6362 35.4868L38.6924 35.3743L38.7487 35.0369L38.8049 34.7557V34.4183C38.8611 34.2495 38.8611 34.1371 38.8611 33.9683C38.8611 33.7996 38.8611 33.6309 38.8611 33.4622C38.8611 33.2935 38.8611 33.181 38.8611 33.0123L38.8049 32.7311V32.4499C38.7487 32.2249 38.6924 31.9437 38.58 31.775L40.5483 31.1002L40.8295 30.9877H41.0545H41.2794L41.4481 31.0439L41.6731 31.1564ZM41.3357 37.2865L41.3919 37.5114V37.6801L41.4481 37.9051L41.3919 38.13L41.3357 38.355L41.2794 38.6362L41.1669 38.8611L41.0545 39.0861L40.8857 39.3673L40.717 39.5923L40.5483 39.8172L40.3796 40.0422L40.1546 40.2671L39.9297 40.4921L39.7047 40.6608L39.4798 40.8295L39.2548 40.9982L39.0861 41.1107L38.8611 41.2232L38.6362 41.2794L38.4112 41.3357L38.2425 41.3919H38.0176L37.8488 41.3357L37.7364 41.2794L37.5676 41.1669L37.4552 40.9982L36.1054 39.1986L36.2179 39.1423L36.3304 39.0299L36.5553 38.8611L36.7803 38.6362L37.0053 38.4112C37.1177 38.2988 37.2302 38.1863 37.3427 38.0738C37.3989 37.9613 37.5114 37.7926 37.6239 37.6801C37.7364 37.5676 37.7926 37.3989 37.9051 37.2865C37.9613 37.174 38.0738 37.0615 38.13 36.8928L38.2425 36.6678C38.355 36.4429 38.4675 36.2179 38.4675 35.993L40.4921 36.6116L40.717 36.6678L40.942 36.8365L41.1107 36.949L41.2232 37.1177L41.3357 37.2865ZM37.4552 42.0668L37.3989 42.2917L37.2865 42.4604L37.174 42.6292L37.0053 42.7979L36.8365 42.9666L36.6116 43.1353L36.3866 43.2478L36.1617 43.3603L35.8805 43.4727L35.5993 43.5852L35.3181 43.6977L35.0369 43.7539L34.7557 43.8102L34.4745 43.8664H34.1933H33.9121H33.6309H33.3497L33.1248 43.8102L32.8998 43.7539L32.7311 43.6415L32.5624 43.5852L32.3937 43.4727L32.2812 43.304L32.2249 43.1915L32.1687 43.0228V42.7979V40.5483H32.2812H32.3937H32.6749L33.0123 40.4921L33.2935 40.4358C33.4622 40.4358 33.6309 40.3796 33.7434 40.3234C33.9121 40.3234 34.0808 40.2671 34.2495 40.2109C34.362 40.1546 34.5307 40.0984 34.6995 40.0422C34.8119 39.9859 34.9807 39.9297 35.0931 39.8734L35.3181 39.761C35.543 39.6485 35.768 39.536 35.9367 39.3673L37.174 40.9982L37.3427 41.2232L37.3989 41.4481L37.4552 41.6731V41.8981V42.0668ZM31.4938 43.6977L31.3251 43.8102L31.1564 43.9227L30.9314 43.9789L30.7065 44.0351H30.4815H30.2003H29.9754L29.6942 43.9789L29.413 43.9227L29.1318 43.8102L28.8506 43.7539L28.5694 43.6415L28.2882 43.4727L28.0633 43.3603L27.7821 43.1915L27.5571 43.0228L27.3884 42.9104L27.1634 42.6854L26.9947 42.5167L26.8822 42.348L26.7698 42.1792L26.6573 42.0105L26.601 41.8418V41.6731V41.5044L26.6573 41.3357L26.7698 41.1669L28.1195 39.3111L28.1757 39.4235L28.2882 39.4798L28.4007 39.536L28.6819 39.7047L28.9631 39.8734L29.2443 39.9859L29.5255 40.0984C29.6942 40.1546 29.8629 40.2109 29.9754 40.2671C30.1441 40.3234 30.3128 40.3796 30.4815 40.4358L30.7627 40.4921C30.8752 40.4921 31.0439 40.5483 31.1564 40.5483C31.3814 40.6046 31.6626 40.6046 31.8875 40.5483L31.9437 42.6292L31.8875 42.9104L31.8313 43.1915L31.775 43.3603L31.6626 43.529L31.4938 43.6977ZM25.7575 41.5044H25.5325L25.3638 41.4481L25.1388 41.3919L24.9139 41.2794L24.7452 41.1669L24.5202 40.9982L24.2952 40.8295L24.1265 40.6608L23.9578 40.4358L23.7328 40.2109L23.5641 39.9859L23.4517 39.7047L23.2829 39.4235L23.1705 39.1986L23.058 38.9174L22.9455 38.6362L22.8893 38.4112L22.833 38.13L22.7768 37.9051V37.6801V37.4552L22.833 37.2865L22.8893 37.1177L23.0017 36.949L23.1142 36.8365L23.2267 36.7241L23.3954 36.6678L25.5887 35.9367V36.0492L25.645 36.2179L25.7575 36.4991L25.8699 36.7241L26.0386 37.0053L26.2074 37.2865C26.2636 37.4552 26.3761 37.5676 26.4323 37.7364C26.5448 37.8488 26.6573 37.9613 26.7135 38.0738L26.9385 38.355C26.9947 38.4675 27.1072 38.5799 27.2197 38.6362L27.3884 38.8611L27.5571 38.9736L27.6696 39.0299L27.7258 39.0861L27.8383 39.1423L27.8945 39.1986L26.7135 40.8857L26.4886 41.1107L26.3198 41.2794L26.1511 41.3919L25.9262 41.4481L25.7575 41.5044ZM22.3831 36.3304L22.2144 36.2179L22.1019 36.0492L21.9332 35.8805L21.8207 35.6555L21.7645 35.4306L21.652 35.2056L21.5958 34.9244V34.6995L21.5395 34.4183V34.0808V33.7996V33.5184L21.5958 33.2372L21.652 32.956L21.7082 32.6749L21.7645 32.3937L21.877 32.1125L21.9894 31.8875L22.1019 31.6625L22.2144 31.4938L22.3831 31.3251L22.4956 31.2126L22.6643 31.1002L22.833 31.0439L23.0017 30.9877H23.1705L23.3392 31.0439L25.4763 31.7188L25.42 31.8313V32L25.3638 32.1125L25.3075 32.3937L25.2513 32.7311L25.1951 33.0123C25.1951 33.181 25.1951 33.3497 25.1951 33.5184V33.8559V34.1371C25.1951 34.3058 25.1951 34.4745 25.1951 34.587L25.2513 34.8682V35.1494L25.3075 35.3743L25.3638 35.4868L25.42 35.5993V35.6555L25.4763 35.7118L23.5079 36.3866L23.2267 36.4429L23.0017 36.4991L22.7768 36.4429L22.5518 36.3866L22.3831 36.3304ZM22.6643 29.9754L22.6081 29.7504V29.5255L22.6643 29.3005L22.7205 29.0756L22.7768 28.8506L22.8893 28.6256L23.0017 28.3444L23.1705 28.1195L23.3392 27.8383L23.5079 27.6133L23.6766 27.3884L23.9016 27.1634L24.0703 26.9947L24.2952 26.826L24.5202 26.601L24.7452 26.4886L24.9701 26.3761L25.1951 26.2636L25.42 26.1511L25.645 26.0949H25.8137H25.9824L26.1511 26.1511L26.3198 26.2074L26.4323 26.3198L26.601 26.4323L27.8945 28.2882L27.7821 28.3444L27.7258 28.4569L27.6133 28.5132L27.3884 28.7381L27.1634 28.9631L26.9385 29.188C26.8822 29.3005 26.7698 29.413 26.6573 29.5817C26.601 29.6942 26.4886 29.8067 26.3761 29.9754C26.3198 30.0879 26.2074 30.2003 26.1511 30.3691C26.0949 30.4815 25.9824 30.594 25.9262 30.7065C25.8699 30.819 25.8137 30.9314 25.7575 31.0439L25.7012 31.2689C25.645 31.3251 25.5887 31.4376 25.5887 31.4938L23.5641 30.8752L23.3392 30.7627L23.1142 30.6502L22.9455 30.4815L22.833 30.3128L22.7205 30.1441L22.6643 29.9754ZM26.601 25.3638L26.6573 25.1951L26.7698 24.9701L26.8822 24.8014L27.051 24.6327L27.2197 24.5202L27.4446 24.3515L27.6696 24.1828L27.8945 24.0703L28.1757 23.9578L28.4007 23.8453L28.6819 23.7891L29.0193 23.7328L29.3005 23.6766L29.5817 23.6204H29.8629L30.1441 23.5641L30.4253 23.6204H30.6502L30.8752 23.6766L31.1002 23.7328L31.3251 23.7891L31.4938 23.9016L31.6063 24.014L31.7188 24.1265L31.8313 24.2952L31.8875 24.464V24.6327V26.8822H31.775H31.6626L31.3814 26.9385H31.0439L30.7627 26.9947C30.594 27.051 30.4253 27.051 30.2566 27.1072C30.0879 27.1634 29.9754 27.2197 29.8067 27.2759C29.6379 27.2759 29.5255 27.3321 29.3568 27.3884L29.0756 27.5009C28.9631 27.5571 28.8506 27.6133 28.6819 27.6696C28.5132 27.7821 28.2882 27.9508 28.1195 28.1195L26.8822 26.4323L26.7135 26.2074L26.601 25.9824L26.5448 25.7575V25.5887L26.601 25.3638Z" fill="white"/>
<path d="M24.1827 28.457L24.8014 27.5009L24.9138 27.2759L25.1388 27.4447C25.2513 27.5571 25.3638 27.6134 25.5325 27.7259C25.7574 27.8946 25.9824 28.1195 26.2636 28.2882V28.3445C26.3761 28.457 26.4323 28.7382 26.3761 28.9631C26.3761 29.1881 26.2636 29.4693 26.1511 29.638C26.0949 29.638 26.0949 29.638 26.0949 29.638C25.9261 29.8067 25.7012 29.9754 25.4762 30.0879C25.2513 30.2566 24.9701 30.3128 24.6327 30.2004L24.8014 29.7505C24.9701 29.8067 25.1388 29.7505 25.3075 29.6942C25.4762 29.638 25.645 29.4693 25.7574 29.3005C25.8699 29.2443 25.9261 29.0756 25.9261 28.9069C25.9261 28.7944 25.9261 28.6819 25.9261 28.6819C25.7012 28.457 25.4762 28.2882 25.2513 28.1195C25.195 28.0633 25.0826 28.007 25.0263 27.9508L24.5764 28.7382L24.1827 28.457Z" fill="white"/>
<path d="M23.0018 34.7557C23.3955 34.7557 23.7891 34.7557 24.1266 34.6994C24.1266 34.587 24.1266 34.4745 24.1266 34.362C24.1266 34.0246 24.0703 33.6309 24.0703 33.2935C24.0703 33.181 23.9579 33.0123 23.8454 32.8998C23.7329 32.7873 23.6204 32.7311 23.4517 32.7311C23.3392 32.7311 23.2268 32.7873 23.1705 32.8435C23.058 32.956 22.9456 33.1247 22.9456 33.2935C22.8893 33.6309 22.8331 33.9121 22.8893 34.137C22.8893 34.362 22.9456 34.5307 23.0018 34.7557ZM24.1828 35.1493C23.7329 35.2056 23.283 35.2618 22.8331 35.2056H22.7206L22.6644 35.0369C22.5519 34.7557 22.4394 34.4745 22.4394 34.1933C22.3832 33.9121 22.3832 33.5747 22.4956 33.2372C22.5519 32.956 22.6644 32.7311 22.8331 32.5623C23.0018 32.3374 23.2268 32.2249 23.4517 32.2249C23.7329 32.2249 23.9579 32.3936 24.1828 32.5623C24.3515 32.7873 24.5203 33.0123 24.5203 33.2372C24.5765 33.6309 24.5765 33.9683 24.5765 34.362C24.5765 34.5307 24.5765 34.6994 24.6327 34.9244V35.1493H24.4078C24.0703 35.2056 24.2391 35.1493 24.1828 35.1493Z" fill="white"/>
<path d="M28.1757 27.1634C28.1194 27.1072 28.0632 26.9947 28.007 26.9385C27.8945 26.7697 27.782 26.601 27.7258 26.3761C27.5571 25.9824 27.6133 25.645 27.782 25.3075C28.007 25.0263 28.3444 24.7451 28.7381 24.6327C28.7943 24.5764 28.9068 24.5764 28.963 24.5202C29.3567 24.4077 29.6941 24.4077 29.9753 24.5202C30.3128 24.6327 30.5377 24.8014 30.6502 25.195C30.7064 25.195 30.7064 25.2513 30.7064 25.3075C30.7627 25.4762 30.7627 25.7574 30.8189 25.9824C30.8189 26.0386 30.8189 26.1511 30.8189 26.2074L30.369 26.2636C30.369 26.2074 30.369 26.0949 30.369 25.9824C30.3128 25.8699 30.3128 25.7574 30.3128 25.5887C29.9191 25.7012 29.5817 25.7574 29.2442 25.9262C28.9068 26.0386 28.5694 26.2074 28.2319 26.3761C28.2882 26.4885 28.3444 26.601 28.4006 26.6573C28.4569 26.7135 28.5131 26.826 28.5694 26.8822L28.1757 27.1634ZM28.1757 25.5887C28.1194 25.645 28.1194 25.8137 28.1194 25.9262C28.4006 25.7574 28.7381 25.5887 29.0755 25.4762C29.4129 25.3638 29.8066 25.2513 30.144 25.195C30.0878 25.0826 29.9753 24.9701 29.8629 24.9701C29.6379 24.9139 29.4129 24.9139 29.0755 24.9701C29.0193 25.0263 28.963 25.0263 28.8506 25.0263C28.5694 25.1388 28.3444 25.3075 28.1757 25.5887Z" fill="white"/>
<path d="M36.2742 25.3076C36.2742 25.645 36.2742 25.9262 36.218 26.2074C36.1617 26.4886 36.0493 26.7698 35.8243 26.9948L35.4869 26.7698C35.5993 26.6011 35.6556 26.4324 35.7118 26.2637C35.4306 26.095 35.0932 25.9262 34.7558 25.87C34.4183 25.7575 34.1371 25.7013 33.7997 25.7013C33.7435 25.87 33.7435 26.0387 33.7435 26.2074H33.2935C33.2373 25.9262 33.2935 25.645 33.406 25.3638C33.5185 25.0827 33.6872 24.8015 33.9122 24.5203L34.2496 24.8577C34.1371 24.9702 34.0247 25.0827 33.9684 25.2514C34.2496 25.2514 34.587 25.3076 34.8682 25.4201C35.2057 25.4763 35.4869 25.645 35.8243 25.7575C35.8243 25.645 35.8243 25.5326 35.7681 25.3638L36.2742 25.3076Z" fill="white"/>
<path d="M37.2302 28.2882C37.2865 28.007 37.4552 27.782 37.6239 27.5571C37.8489 27.3321 38.0738 27.2196 38.355 27.1634C38.6362 27.1072 38.8612 27.2196 39.0299 27.3884C39.2548 27.5008 39.4235 27.782 39.4798 27.9507C39.4798 28.1195 39.4798 28.2319 39.4235 28.3444C39.536 28.3444 39.6485 28.3444 39.7047 28.4007C39.7047 28.4007 39.761 28.4007 39.761 28.4569C39.9859 28.5694 40.0984 28.7381 40.1547 28.9631C40.2109 29.1318 40.2109 29.3567 40.0984 29.5817C40.0984 29.5817 40.0984 29.5817 40.0984 29.6379C39.9297 29.8629 39.7047 30.0316 39.4798 30.1441C39.1986 30.3128 38.8612 30.369 38.58 30.3128L38.6362 29.8629C38.8612 29.8629 39.0861 29.8629 39.2548 29.7504C39.4235 29.6942 39.5923 29.5254 39.7047 29.413C39.7047 29.413 39.7047 29.413 39.7047 29.3567C39.761 29.3005 39.761 29.188 39.7047 29.0755C39.7047 28.9631 39.6485 28.9068 39.536 28.8506C39.4798 28.7943 39.4235 28.7943 39.3673 28.7943C39.2548 28.7943 39.1424 28.7943 39.0861 28.7943L38.6362 28.8506L38.8049 28.4569C38.8612 28.4007 38.8612 28.3444 38.9174 28.2882C38.9736 28.2319 39.0299 28.1195 39.0299 28.0632C38.9736 27.9507 38.8612 27.8383 38.7487 27.7258C38.6362 27.6696 38.5237 27.6133 38.4675 27.6133C38.2988 27.6696 38.13 27.7258 37.9613 27.8945C37.8489 28.007 37.7364 28.2319 37.6801 28.4007L37.2302 28.2882Z" fill="white"/>
<path d="M39.536 32.3374L39.5922 32.2812C39.9859 32.225 40.5483 32.1125 40.942 32.3937C41.1669 32.5062 41.3919 32.7311 41.5044 32.9561C41.6731 33.181 41.7293 33.4622 41.7293 33.6872C41.7293 34.0246 41.6731 34.3058 41.5606 34.5308C41.4481 34.7557 41.2794 34.9807 40.9982 35.0932C40.6046 35.3744 40.0984 35.2056 39.6485 35.1494C39.6485 35.1494 39.5922 35.0932 39.536 35.0932L39.6485 34.6432C39.6485 34.6432 39.7047 34.6432 39.761 34.6995C39.8734 34.6995 39.9297 34.6995 40.0422 34.7557C40.0422 34.4183 40.0984 34.0809 40.0984 33.7434C40.0984 33.406 40.0984 33.0123 40.0984 32.6749C39.9297 32.6749 39.8172 32.7311 39.6485 32.7311L39.5922 32.7874L39.536 32.3374ZM40.717 32.7874C40.6608 32.7311 40.6046 32.7311 40.5483 32.6749C40.5483 33.0123 40.6046 33.406 40.5483 33.7434C40.5483 34.0809 40.5483 34.4183 40.4921 34.812C40.6046 34.812 40.717 34.7557 40.7733 34.6995C40.942 34.6432 41.0545 34.4745 41.1107 34.362C41.2232 34.1371 41.2794 33.9121 41.2794 33.6872C41.2794 33.5185 41.2232 33.3497 41.1107 33.181C40.9982 33.0123 40.8857 32.8436 40.717 32.7874Z" fill="white"/>
<path d="M38.6362 37.2302C38.8611 37.3427 39.0861 37.5114 39.3673 37.6239C39.5922 37.7364 39.8172 37.8488 40.0984 38.0176L40.2671 38.13L40.1546 38.355L40.0421 38.5237C39.6485 39.2548 38.9173 40.6046 37.905 40.0422C37.1739 39.7047 37.2864 39.0299 37.6238 38.4112C37.7363 38.1863 37.905 37.9051 38.0738 37.6801C38.13 37.5676 38.2425 37.3989 38.2987 37.2865L38.4112 37.1177L38.6362 37.2302ZM39.1423 38.0176C38.9736 37.9051 38.8049 37.8488 38.5799 37.7364C38.5237 37.7926 38.4674 37.8488 38.4112 37.9613C38.2987 38.1863 38.13 38.4112 38.0175 38.6362C37.7926 39.0299 37.6801 39.4235 38.0738 39.6485C38.6924 39.9859 39.311 38.9174 39.6485 38.2988C39.4797 38.1863 39.311 38.13 39.1423 38.0176Z" fill="white"/>
<path d="M33.6871 41.1107C33.6871 41.2794 33.6871 41.4481 33.6871 41.6731C34.0245 41.6168 34.362 41.5606 34.6994 41.4481C35.0368 41.3356 35.3743 41.1669 35.7679 40.9982C35.6555 40.8295 35.5992 40.717 35.4867 40.6045L35.8242 40.3233C36.0491 40.4921 36.2179 40.8295 36.3303 41.1107C36.3866 41.3356 36.3866 41.6168 36.3866 41.8418C36.3303 42.0667 36.2179 42.2917 35.9929 42.5167C35.8242 42.6291 35.5992 42.7979 35.2618 42.8541C34.3057 43.1915 33.7996 42.9666 33.5184 42.5167C33.2372 42.123 33.2372 41.5606 33.2372 41.1107H33.6871ZM33.7996 42.123C33.8558 42.1792 33.8558 42.2355 33.9121 42.2355C34.0808 42.5167 34.4182 42.6854 35.1493 42.4604C35.3743 42.3479 35.543 42.2355 35.6555 42.123C35.8242 42.0105 35.8804 41.898 35.9367 41.7293C35.9367 41.6168 35.9367 41.5606 35.9367 41.4481C35.543 41.6168 35.2055 41.7855 34.8119 41.898C34.4744 42.0105 34.137 42.0667 33.7996 42.123Z" fill="white"/>
<path d="M28.5134 42.0105C28.5134 42.0668 28.5696 42.123 28.5696 42.123C28.8508 42.348 29.0758 42.5167 29.357 42.5167C29.5819 42.5167 29.8631 42.4604 30.0881 42.2355C30.0881 42.2355 30.1443 42.2355 30.1443 42.1792C30.2006 42.1792 30.2006 42.123 30.2006 42.123C30.2568 42.0105 30.313 41.898 30.2568 41.7293C30.2568 41.6169 30.1443 41.4481 29.9756 41.2794C29.9194 41.2232 29.8069 41.1669 29.6944 41.0545C29.357 40.8857 29.132 40.8295 28.9071 40.8295C28.7383 40.8857 28.5696 40.9982 28.3447 41.2232C28.5134 41.2794 28.6821 41.3919 28.7946 41.4481C29.0195 41.5606 29.2445 41.6169 29.4694 41.6731L29.4132 42.123C29.132 42.0668 28.8508 42.0105 28.6259 41.8418C28.3447 41.7293 28.1197 41.6169 27.8948 41.4481L27.6698 41.2794L27.8385 41.1107C28.1197 40.717 28.4571 40.4921 28.7946 40.3796C29.132 40.3234 29.5257 40.4358 29.9756 40.6608C30.0881 40.7733 30.2006 40.8857 30.313 40.942C30.538 41.1669 30.6505 41.4481 30.7067 41.6731C30.7629 41.898 30.7067 42.1792 30.5942 42.348C30.5942 42.4042 30.538 42.4604 30.4818 42.5167C30.4818 42.5167 30.4255 42.5729 30.3693 42.5729C30.0318 42.9104 29.6944 43.0228 29.3007 42.9666C28.9633 42.9666 28.5696 42.7416 28.2884 42.4604C28.2322 42.4042 28.176 42.4042 28.176 42.348L28.5134 42.0105Z" fill="white"/>
<path d="M25.3637 37.5115C25.195 37.5677 25.0263 37.6802 24.8576 37.7364C25.0263 38.0739 25.195 38.4113 25.42 38.6925C25.5887 38.9737 25.8699 39.2549 26.1511 39.5361C26.2073 39.3674 26.3198 39.2549 26.4323 39.0862L26.8259 39.3674C26.601 39.7048 26.376 39.986 26.0948 40.1547C25.8699 40.2672 25.6449 40.3797 25.42 40.3797C25.195 40.3797 24.97 40.3234 24.7451 40.2109C24.5201 40.0422 24.2952 39.8173 24.1265 39.5361C24.014 39.4236 23.9577 39.3111 23.9015 39.1986C23.789 38.8612 23.789 38.5238 23.9015 38.2426C24.014 37.9051 24.2389 37.6239 24.5764 37.399C24.7451 37.2865 24.97 37.174 25.195 37.0616L25.3637 37.5115ZM24.5201 38.0739C24.4076 38.1863 24.3514 38.2988 24.2952 38.3551C24.2389 38.58 24.2389 38.805 24.3514 38.9737C24.3514 39.0862 24.4076 39.1424 24.4639 39.2549C24.6326 39.4798 24.8013 39.7048 25.0263 39.8173C25.1388 39.8735 25.3075 39.9297 25.42 39.9297C25.5324 39.9297 25.6449 39.8735 25.7574 39.8173C25.4762 39.5361 25.2512 39.2549 25.0263 38.9737C24.8013 38.6925 24.6326 38.4113 24.5201 38.0739Z" fill="white"/>
</svg>
