<svg width="128" height="48" viewBox="0 0 128 48" fill="none" xmlns="http://www.w3.org/2000/svg">
<g clip-path="url(#clip0_20_64)">
<path d="M23.5853 0.620148C18.9206 0.620148 14.3606 2.0034 10.482 4.59499C6.60345 7.18658 3.58045 10.8701 1.79534 15.1798C0.0102191 19.4894 -0.456849 24.2316 0.453196 28.8067C1.36324 33.3819 3.60953 37.5844 6.90799 40.8828C10.2065 44.1813 14.409 46.4276 18.9841 47.3376C23.5592 48.2477 28.3014 47.7806 32.6111 45.9955C36.9207 44.2104 40.6042 41.1874 43.1958 37.3088C45.7874 33.4302 47.1707 28.8702 47.1707 24.2055C47.1707 17.9503 44.6858 11.9512 40.2627 7.52813C35.8396 3.10502 29.8406 0.620148 23.5853 0.620148ZM23.5853 45.7629C19.3217 45.7629 15.1538 44.4986 11.6087 42.1298C8.06357 39.7611 5.3005 36.3943 3.66887 32.4552C2.03724 28.516 1.61033 24.1816 2.44213 19.9998C3.27393 15.8181 5.32707 11.9769 8.34193 8.96207C11.3568 5.94721 15.198 3.89406 19.3797 3.06227C23.5614 2.23047 27.8959 2.65738 31.835 4.28901C35.7741 5.92064 39.1409 8.68371 41.5097 12.2288C43.8785 15.7739 45.1428 19.9418 45.1428 24.2055C45.1428 29.9229 42.8715 35.4061 38.8287 39.4489C34.7859 43.4917 29.3027 45.7629 23.5853 45.7629ZM23.5853 5.8148C19.9524 5.8148 16.401 6.8921 13.3803 8.91047C10.3596 10.9288 8.00521 13.7976 6.61493 17.1541C5.22465 20.5105 4.86089 24.2038 5.56965 27.767C6.27841 31.3301 8.02785 34.6031 10.5968 37.172C13.1657 39.7409 16.4386 41.4904 20.0018 42.1991C23.565 42.9079 27.2583 42.5441 30.6147 41.1538C33.9711 39.7636 36.8399 37.4092 38.8583 34.3885C40.8767 31.3678 41.954 27.8164 41.954 24.1834C41.9549 21.77 41.4803 19.38 40.5572 17.1501C39.634 14.9202 38.2805 12.8941 36.5739 11.1875C34.8674 9.48094 32.8412 8.12741 30.6113 7.20427C28.3814 6.28114 25.9914 5.80649 23.578 5.80745L23.5853 5.8148ZM23.5853 40.5756C20.3473 40.5771 17.1816 39.6182 14.4886 37.8203C11.7956 36.0224 9.69622 33.4663 8.45607 30.4751C7.21593 27.484 6.8907 24.1923 7.52152 21.0163C8.15233 17.8404 9.71085 14.9228 12 12.6326C14.2891 10.3425 17.2059 8.78268 20.3816 8.15044C23.5573 7.51819 26.8492 7.84195 29.8409 9.08075C32.8326 10.3195 35.3896 12.4177 37.1887 15.11C38.9878 17.8022 39.9481 20.9675 39.9481 24.2055C39.9462 28.5446 38.2216 32.7054 35.1534 35.7736C32.0852 38.8418 27.9244 40.5663 23.5853 40.5683V40.5756ZM23.5853 11.0021C20.9696 11.0021 18.4126 11.7778 16.2377 13.231C14.0628 14.6842 12.3676 16.7497 11.3666 19.1664C10.3656 21.583 10.1037 24.2422 10.614 26.8077C11.1243 29.3732 12.3839 31.7297 14.2336 33.5793C16.0832 35.4289 18.4397 36.6885 21.0052 37.1988C23.5707 37.7091 26.2299 37.4472 28.6465 36.4462C31.0631 35.4452 33.1286 33.7501 34.5819 31.5752C36.0351 29.4003 36.8108 26.8433 36.8108 24.2275C36.8117 22.4901 36.4704 20.7695 35.8061 19.1641C35.1419 17.5587 34.1679 16.0999 32.9397 14.871C31.7115 13.6421 30.2532 12.6673 28.6482 12.0022C27.0431 11.3371 25.3227 10.9948 23.5853 10.9948V11.0021ZM23.5853 35.3883C21.3754 35.3883 19.215 34.7331 17.3773 33.5054C15.5397 32.2778 14.1073 30.5328 13.2612 28.4912C12.4152 26.4496 12.1934 24.2029 12.6241 22.0353C13.0547 19.8677 14.1183 17.8764 15.6805 16.3132C17.2427 14.75 19.2333 13.685 21.4006 13.253C23.568 12.8209 25.8147 13.0412 27.8569 13.8859C29.8991 14.7306 31.645 16.1619 32.8738 17.9987C34.1027 19.8356 34.7594 21.9955 34.7608 24.2055C34.7608 25.6737 34.4715 27.1275 33.9094 28.4838C33.3474 29.8402 32.5235 31.0725 31.485 32.1103C30.4465 33.1482 29.2136 33.9712 27.8569 34.5324C26.5002 35.0936 25.0462 35.3819 23.578 35.381L23.5853 35.3883ZM90.1386 10.0543C90.9202 9.84383 91.6104 9.38112 92.102 8.73805C92.5936 8.09499 92.8591 7.30756 92.8571 6.49811C92.8571 5.48091 92.4531 4.50537 91.7338 3.78609C91.0145 3.06682 90.039 2.66274 89.0218 2.66274H83.2614V14.4187H85.3333V10.3261H87.927L90.8219 14.4334H93.2613L90.1386 10.0543ZM85.3333 8.43784V4.53634H89.0071C89.2592 4.5411 89.5079 4.59574 89.7389 4.6971C89.9698 4.79846 90.1784 4.94455 90.3525 5.12693C90.5267 5.30931 90.6631 5.52437 90.7537 5.75971C90.8444 5.99505 90.8875 6.24601 90.8807 6.49811C90.8925 7.00356 90.7035 7.49309 90.3551 7.85944C90.0066 8.22578 89.5272 8.43906 89.0218 8.45253L85.3333 8.43784ZM95.1202 2.64805H97.1921V12.5451H103.136V14.4334H95.1202V2.64805ZM109.58 2.64805H105.002V14.404H109.58C111.139 14.404 112.634 13.7847 113.736 12.6824C114.839 11.58 115.458 10.0849 115.458 8.52601C115.458 6.96708 114.839 5.47199 113.736 4.36966C112.634 3.26733 111.139 2.64805 109.58 2.64805ZM109.58 12.5451H107.067V4.52899H109.58C110.101 4.53083 110.616 4.63637 111.096 4.83946C111.575 5.04254 112.01 5.3391 112.374 5.71184C112.738 6.08457 113.024 6.52603 113.215 7.01046C113.406 7.49489 113.5 8.01258 113.489 8.53336C113.501 9.05474 113.408 9.57323 113.217 10.0585C113.026 10.5438 112.74 10.9861 112.376 11.3597C112.012 11.7332 111.578 12.0304 111.098 12.2339C110.617 12.4375 110.101 12.5432 109.58 12.5451ZM81.1967 18.3128H83.2687V28.2098H89.2128V30.0981H81.1967V18.3128ZM73.2247 18.1071C72.022 18.1143 70.8482 18.4776 69.8516 19.1509C68.8549 19.8243 68.0799 20.7777 67.6243 21.8908C67.1687 23.004 67.0529 24.2272 67.2915 25.4061C67.53 26.585 68.1123 27.6669 68.9648 28.5154C69.8174 29.3638 70.9021 29.9409 72.0821 30.1738C73.2622 30.4067 74.4848 30.285 75.5957 29.824C76.7067 29.3631 77.6564 28.5835 78.3249 27.5836C78.9935 26.5837 79.351 25.4083 79.3525 24.2055C79.3535 23.4019 79.1955 22.606 78.8875 21.8638C78.5795 21.1215 78.1277 20.4475 77.5581 19.8807C76.9885 19.3138 76.3124 18.8652 75.5687 18.5609C74.8249 18.2565 74.0283 18.1022 73.2247 18.1071ZM73.2247 28.3054C72.4124 28.3054 71.6183 28.0645 70.9429 27.6132C70.2675 27.1619 69.741 26.5204 69.4302 25.7699C69.1193 25.0194 69.038 24.1936 69.1964 23.3969C69.3549 22.6001 69.7461 21.8683 70.3205 21.2939C70.8949 20.7195 71.6267 20.3283 72.4235 20.1698C73.2202 20.0113 74.046 20.0927 74.7965 20.4035C75.547 20.7144 76.1885 21.2408 76.6398 21.9163C77.0911 22.5917 77.332 23.3858 77.332 24.1981C77.3329 24.7381 77.2274 25.273 77.0214 25.7722C76.8155 26.2713 76.5131 26.725 76.1316 27.1071C75.7501 27.4893 75.297 27.7925 74.7982 27.9994C74.2994 28.2062 73.7647 28.3127 73.2247 28.3127V28.3054ZM75.2747 2.44966C74.07 2.44966 72.8923 2.8069 71.8907 3.47619C70.889 4.14548 70.1083 5.09677 69.6473 6.20976C69.1863 7.32276 69.0657 8.54746 69.3007 9.72901C69.5357 10.9106 70.1158 11.9959 70.9677 12.8477C71.8195 13.6996 72.9048 14.2797 74.0864 14.5147C75.2679 14.7497 76.4926 14.6291 77.6056 14.1681C78.7186 13.7071 79.6699 12.9264 80.3392 11.9247C81.0085 10.923 81.3657 9.7454 81.3657 8.5407C81.3657 6.92526 80.724 5.37598 79.5817 4.23369C78.4394 3.0914 76.8901 2.44966 75.2747 2.44966ZM75.2747 12.6479C74.4611 12.6538 73.6642 12.4178 72.9849 11.9701C72.3056 11.5223 71.7746 10.8829 71.4592 10.1329C71.1438 9.38298 71.0583 8.55624 71.2134 7.75759C71.3686 6.95894 71.7574 6.22436 72.3306 5.64701C72.9039 5.06966 73.6356 4.67555 74.4331 4.51468C75.2307 4.3538 76.058 4.43341 76.8102 4.74339C77.5624 5.05337 78.2056 5.57977 78.6582 6.25583C79.1109 6.93188 79.3525 7.72712 79.3525 8.5407C79.3525 9.62494 78.9239 10.6652 78.16 11.4346C77.396 12.204 76.3589 12.6402 75.2747 12.6479ZM71.1748 33.7719C69.9701 33.7719 68.7925 34.1291 67.7908 34.7984C66.7891 35.4677 66.0084 36.419 65.5474 37.532C65.0864 38.645 64.9658 39.8697 65.2008 41.0512C65.4358 42.2328 66.0159 43.3181 66.8678 44.1699C67.7196 45.0218 68.805 45.6019 69.9865 45.8369C71.168 46.0719 72.3927 45.9513 73.5057 45.4903C74.6187 45.0293 75.57 44.2486 76.2393 43.2469C76.9086 42.2452 77.2658 41.0676 77.2658 39.8629C77.2658 38.2475 76.6241 36.6982 75.4818 35.5559C74.3395 34.4136 72.7902 33.7719 71.1748 33.7719ZM71.1748 43.9701C70.3625 43.9701 69.5684 43.7292 68.893 43.2779C68.2175 42.8266 67.6911 42.1852 67.3802 41.4347C67.0694 40.6842 66.988 39.8583 67.1465 39.0616C67.305 38.2649 67.6962 37.5331 68.2706 36.9587C68.845 36.3843 69.5768 35.9931 70.3735 35.8346C71.1702 35.6761 71.9961 35.7575 72.7466 36.0683C73.4971 36.3792 74.1385 36.9056 74.5898 37.5811C75.0411 38.2565 75.282 39.0506 75.282 39.8629C75.282 40.4023 75.1758 40.9364 74.9694 41.4347C74.763 41.933 74.4604 42.3858 74.079 42.7672C73.6977 43.1485 73.2449 43.4511 72.7466 43.6575C72.2483 43.8639 71.7142 43.9701 71.1748 43.9701ZM64.0919 44.1759C63.2398 45.0271 62.1544 45.6065 60.9731 45.841C59.7917 46.0756 58.5673 45.9546 57.4547 45.4934C56.3421 45.0322 55.3912 44.2514 54.7221 43.2499C54.0531 42.2484 53.6961 41.071 53.6961 39.8666C53.6961 38.6622 54.0531 37.4848 54.7221 36.4832C55.3912 35.4817 56.3421 34.701 57.4547 34.2398C58.5673 33.7786 59.7917 33.6576 60.9731 33.8921C62.1544 34.1266 63.2398 34.7061 64.0919 35.5573L62.6885 36.9607C62.1139 36.3867 61.382 35.996 60.5855 35.8379C59.7889 35.6798 58.9633 35.7614 58.2131 36.0724C57.4628 36.3835 56.8217 36.9099 56.3706 37.5852C55.9195 38.2605 55.6787 39.0544 55.6787 39.8666C55.6787 40.6787 55.9195 41.4726 56.3706 42.1479C56.8217 42.8233 57.4628 43.3497 58.2131 43.6607C58.9633 43.9717 59.7889 44.0533 60.5855 43.8952C61.382 43.7371 62.1139 43.3464 62.6885 42.7725L64.0919 44.1759ZM99.4184 33.9776H101.483V45.7335H99.7197L93.4743 37.4015V45.7556H91.4097V33.9996H93.3568L99.4184 42.0818V33.9776ZM119.977 33.9776H122.049V43.8746H127.993V45.7629H119.977V33.9776ZM117.78 33.9776V45.7335H115.708V33.9776H117.78ZM113.79 44.1759C112.938 45.0271 111.853 45.6065 110.671 45.841C109.49 46.0756 108.265 45.9546 107.153 45.4934C106.04 45.0322 105.089 44.2514 104.42 43.2499C103.751 42.2484 103.394 41.071 103.394 39.8666C103.394 38.6622 103.751 37.4848 104.42 36.4832C105.089 35.4817 106.04 34.701 107.153 34.2398C108.265 33.7786 109.49 33.6576 110.671 33.8921C111.853 34.1266 112.938 34.7061 113.79 35.5573L112.416 36.9607C111.841 36.3867 111.11 35.996 110.313 35.8379C109.516 35.6798 108.691 35.7614 107.941 36.0724C107.19 36.3835 106.549 36.9099 106.098 37.5852C105.647 38.2605 105.406 39.0544 105.406 39.8666C105.406 40.6787 105.647 41.4726 106.098 42.1479C106.549 42.8233 107.19 43.3497 107.941 43.6607C108.691 43.9717 109.516 44.0533 110.313 43.8952C111.11 43.7371 111.841 43.3464 112.416 42.7725L113.79 44.1759ZM95.9872 18.3128H91.4023V30.0687H95.9798C97.5387 30.0687 99.0338 29.4495 100.136 28.3471C101.238 27.2448 101.858 25.7497 101.858 24.1908C101.858 22.6319 101.238 21.1368 100.136 20.0344C99.0338 18.9321 97.5387 18.3128 95.9798 18.3128H95.9872ZM95.9872 28.2098H93.4743V20.2011H95.9872C97.0492 20.2011 98.0677 20.623 98.8187 21.374C99.5696 22.1249 99.9915 23.1435 99.9915 24.2055C99.9915 25.2675 99.5696 26.286 98.8187 27.037C98.0677 27.788 97.0492 28.2098 95.9872 28.2098ZM89.2128 33.9776H87.1482V41.0312C87.1482 41.8204 86.8347 42.5772 86.2766 43.1353C85.7185 43.6934 84.9617 44.0069 84.1724 44.0069C83.3832 44.0069 82.6264 43.6934 82.0683 43.1353C81.5102 42.5772 81.1967 41.8204 81.1967 41.0312V33.9776H79.1321V40.9209C79.1321 41.5828 79.2625 42.2383 79.5158 42.8498C79.7691 43.4613 80.1403 44.017 80.6084 44.485C81.0764 44.953 81.6321 45.3243 82.2436 45.5776C82.8551 45.8309 83.5105 45.9613 84.1724 45.9613C84.8344 45.9613 85.4898 45.8309 86.1013 45.5776C86.7128 45.3243 87.2685 44.953 87.7365 44.485C88.2046 44.017 88.5758 43.4613 88.8291 42.8498C89.0824 42.2383 89.2128 41.5828 89.2128 40.9209V33.9776ZM65.1278 23.5589V28.1731C64.4677 28.8713 63.6696 29.4245 62.7841 29.7976C61.8987 30.1708 60.9454 30.3557 59.9846 30.3406C58.3692 30.3533 56.8149 29.7237 55.6636 28.5904C54.5124 27.457 53.8585 25.9128 53.8458 24.2973C53.8332 22.6819 54.4627 21.1276 55.5961 19.9763C56.7294 18.8251 58.2737 18.1712 59.8891 18.1585C61.5749 18.1531 63.1992 18.7918 64.4298 19.944L63.0265 21.3473C62.1663 20.5705 61.0481 20.141 59.8891 20.1423C58.7943 20.1285 57.7385 20.5478 56.9513 21.3087C56.1642 22.0697 55.7095 23.1109 55.6864 24.2055C55.6959 24.7603 55.8147 25.3078 56.0359 25.8167C56.2571 26.3257 56.5764 26.786 56.9755 27.1715C57.3747 27.557 57.8459 27.8601 58.3622 28.0635C58.8785 28.2669 59.4298 28.3665 59.9846 28.3568C61.1451 28.4202 62.2875 28.0481 63.1881 27.3135V25.359H60.1757V23.5589H65.1278ZM57.8171 14.426H56.0317L52.211 2.64805H54.3418L56.9281 11.0168L59.6173 2.64805H61.3659L64.0551 11.0168L66.6414 2.64805H68.7722L64.9442 14.426H63.1661L60.4916 6.28504L57.8171 14.426Z" fill="white"/>
</g>
<defs>
<clipPath id="clip0_20_64">
<rect width="128" height="47.178" fill="white" transform="translate(0 0.620148)"/>
</clipPath>
</defs>
</svg>
